<svg width="99" height="50" viewBox="0 0 99 50" fill="none" xmlns="http://www.w3.org/2000/svg">
<path d="M46.4575 42.6946V42.637C47.4559 42.373 48.5454 41.3747 48.5454 39.5315C48.5454 37.5156 46.7407 36.2196 44.648 36.2196C42.5552 36.2196 40.7505 37.5204 40.7505 39.5315C40.7505 41.3747 41.8401 42.373 42.8384 42.637V42.6946C41.3889 43.0882 40.2993 44.293 40.2993 45.9537C40.2993 48.4784 42.2193 50 44.648 50C47.0767 50 48.9966 48.4736 48.9966 45.9537C48.9966 44.2978 47.9071 43.093 46.4575 42.6946ZM42.56 39.7955C42.56 38.5524 43.5008 37.6884 44.648 37.6884C45.8911 37.6884 46.7359 38.5716 46.7359 39.7955C46.7359 40.8851 46.0399 41.9027 44.648 41.9027C43.256 41.9027 42.56 40.8275 42.56 39.7955ZM42.1089 45.9537C42.1089 44.5426 43.184 43.5058 44.6528 43.4866C46.0639 43.5058 47.1919 44.3362 47.1919 45.9537C47.1919 47.4033 46.1551 48.4208 44.6528 48.4208C43.28 48.4208 42.1089 47.5185 42.1089 45.9537Z" fill="url(#paint0_linear_403_6333)"/>
<path d="M59.091 40.8515H57.2815L54.7232 47.6817L52.0496 40.8515H50.0913L53.7248 49.7744H55.5871L59.091 40.8515Z" fill="url(#paint1_linear_403_6333)"/>
<path d="M61.63 42.997C62.2491 42.5266 62.8731 41.9794 64.1691 41.9794C65.6186 41.9794 66.2954 42.9394 66.2954 43.861V44.2354H65.0523C62.3403 44.2354 60.1372 45.0273 60.1372 47.3217C60.1372 49.0544 61.5676 49.9952 63.2235 49.9952C64.5771 49.9952 65.5946 49.5632 66.3482 48.416H66.3866C66.3866 48.8672 66.4058 49.3184 66.4442 49.7696H67.9514C67.8938 49.2992 67.8746 48.7712 67.8746 48.152V43.597C67.8746 42.0514 66.785 40.6211 64.1451 40.6211C62.9019 40.6211 61.5484 41.0531 60.6028 41.941L61.6204 42.997H61.63ZM66.3002 46.0449C66.3002 47.2497 65.6426 48.6416 63.7563 48.6416C62.5899 48.6416 61.8364 48.2096 61.8364 47.1921C61.8364 45.7617 63.7947 45.4785 65.393 45.4785H66.2954V46.0449H66.3002Z" fill="url(#paint2_linear_403_6333)"/>
<path d="M72.0409 49.7744V45.1809C72.0409 43.1122 73.1161 42.205 74.5273 42.205C75.5976 42.205 76.5576 42.8242 76.5576 44.4994V49.7696H78.2519V44.029C78.2519 41.6579 76.7448 40.6211 75.0121 40.6211C73.6393 40.6211 72.5065 41.2787 72.0745 42.2194H72.0361V40.8467H70.3418V49.7696H72.0361L72.0409 49.7744Z" fill="url(#paint3_linear_403_6333)"/>
<path d="M85.0533 50C86.3541 50 87.5588 49.6064 88.442 48.6272L87.2372 47.4225C86.6709 48.08 86.0133 48.4208 85.0725 48.4208C83.3206 48.4208 82.1926 47.0625 82.1926 45.3873C82.1926 43.7122 83.1334 42.2242 84.9765 42.2242C85.9173 42.2242 86.5749 42.565 87.1988 43.2226L88.4804 42.0562C87.5972 41.0963 86.3541 40.6451 85.0533 40.6451C82.2694 40.6451 80.3831 42.6034 80.3831 45.3489C80.3831 48.0992 82.303 50 85.0533 50Z" fill="url(#paint4_linear_403_6333)"/>
<path d="M92.3442 40.8659C89.8339 41.7923 88.7107 44.3506 89.6371 46.8609C90.5538 49.352 92.9202 50.648 95.5697 49.6736C96.9952 49.1504 97.9504 48.2912 98.4688 47.0769V46.5345L97.1104 46.1121C96.7696 47.1009 96.2465 47.8545 95.2769 48.2144C93.8129 48.752 92.0898 48.2864 91.5522 46.8177L98.2672 44.3458L98.0608 43.7794C97.4272 42.0658 96.0545 40.5443 94.0337 40.5443C93.5153 40.5443 92.9538 40.6451 92.3538 40.8659H92.3442ZM96.0977 43.6978L91.0818 45.5457C90.6738 44.4322 91.2066 42.733 92.781 42.1522C94.3889 41.5619 95.5505 42.3154 96.0977 43.6978Z" fill="url(#paint5_linear_403_6333)"/>
<path d="M21.8441 15.2875C21.9545 15.3163 22.0649 15.3451 22.1753 15.3787C22.3913 15.4363 22.6073 15.4987 22.8281 15.5659C22.9481 15.5995 23.0681 15.6379 23.1881 15.6763C23.4089 15.7435 23.6297 15.8203 23.8553 15.8971C23.9657 15.9355 24.0761 15.9691 24.1865 16.0123C24.508 16.1275 24.8296 16.2427 25.1512 16.3723C25.2424 16.4107 25.3384 16.4491 25.4296 16.4875C25.6648 16.5835 25.9048 16.6795 26.1448 16.7851C26.2936 16.8475 26.4424 16.9147 26.5912 16.9818C26.7784 17.0634 26.9608 17.1498 27.148 17.2362C27.3111 17.313 27.4743 17.3898 27.6375 17.4714C27.8103 17.5578 27.9831 17.6442 28.1607 17.7306C28.3335 17.817 28.5015 17.9034 28.6743 17.9898C28.8423 18.081 29.0151 18.1722 29.1879 18.2682C29.3463 18.3546 29.4999 18.4314 29.6583 18.5226C30.0423 18.729 30.4118 18.9114 30.767 19.0842C27.8439 12.9788 29.6967 11.1212 30.6134 10.1997C33.1046 7.70855 37.1556 7.70855 39.6515 10.1949L44.5282 9.3405L45.5458 4.30066C42.6754 1.43035 38.9076 0 35.1349 0C31.3622 0 27.5895 1.43515 24.7192 4.31026C21.9689 7.06057 20.6346 10.5789 20.8698 14.4763C20.8842 14.6779 20.9082 14.8843 20.9274 15.0907C20.9802 15.1003 21.033 15.1147 21.081 15.1291C21.3353 15.1867 21.5897 15.2443 21.8489 15.3115L21.8441 15.2875Z" fill="url(#paint6_linear_403_6333)"/>
<path d="M33.9639 28.8087C33.8007 28.7847 33.6375 28.7559 33.4743 28.7271C33.2727 28.6935 33.0759 28.6551 32.8743 28.6119C32.7063 28.5783 32.5431 28.5351 32.3752 28.4967C32.1688 28.4487 31.9672 28.3959 31.7608 28.3383C31.588 28.2903 31.4152 28.2375 31.2424 28.1895C31.0312 28.1271 30.8248 28.0647 30.6136 27.9927C30.436 27.9351 30.2584 27.8679 30.0808 27.8055C29.8648 27.7287 29.6536 27.6519 29.4376 27.5703C29.2553 27.4983 29.0681 27.4215 28.8809 27.3447C28.6601 27.2535 28.4441 27.1671 28.2233 27.0711C28.0313 26.9847 27.8297 26.8935 27.6329 26.8024C27.4121 26.7016 27.1961 26.6056 26.9753 26.4952C26.7305 26.3752 26.4809 26.2456 26.2313 26.116C26.0538 26.0248 25.8858 25.9432 25.7082 25.852L25.6266 25.804C25.2762 25.6072 24.9306 25.4248 24.5898 25.2472C27.6569 31.1798 27.7049 35.6965 24.7242 38.682C20.9851 42.421 14.8989 42.421 11.1598 38.682L6.62398 39.7811L5.26562 44.5762C12.2542 51.5648 23.6298 51.5648 30.6184 44.5762C34.7175 40.4771 36.1046 35.0821 34.7751 28.9143C34.7079 28.9095 34.6359 28.8951 34.5639 28.8855C34.3719 28.8615 34.1751 28.8375 33.9783 28.8087H33.9639Z" fill="url(#paint7_linear_403_6333)"/>
<path d="M39.6466 10.1853C39.6466 10.1853 39.6466 10.1853 39.6418 10.1805C42.1378 12.6764 42.1378 16.7323 39.6418 19.2234C38.7251 20.1402 36.8675 21.9929 30.7573 19.0698C30.9301 19.425 31.1125 19.7946 31.3141 20.1785C31.4101 20.3513 31.4965 20.5193 31.5925 20.6921C31.6741 20.8457 31.7605 20.9993 31.8373 21.1481C31.9381 21.3353 32.0293 21.5273 32.1253 21.7145C32.2021 21.8633 32.2789 22.0169 32.3509 22.1657C32.4421 22.3529 32.5285 22.5353 32.6149 22.7225C32.6869 22.8761 32.7541 23.0297 32.8261 23.1833C32.9077 23.3608 32.9893 23.5432 33.066 23.7208C33.138 23.8888 33.2052 24.0568 33.2772 24.2248C33.3828 24.4792 33.4788 24.7288 33.5748 24.9784C33.6564 25.1896 33.738 25.4056 33.81 25.6168C33.8628 25.7704 33.9108 25.9192 33.9636 26.068C34.026 26.2456 34.0836 26.4279 34.1412 26.6055C34.1892 26.7543 34.2324 26.9031 34.2756 27.0471C34.3332 27.2343 34.3812 27.4167 34.434 27.6039C34.4724 27.7383 34.5108 27.8775 34.5444 28.0119C34.602 28.2375 34.6548 28.4631 34.7076 28.6839C34.722 28.7559 34.746 28.8327 34.7604 28.9095C34.9668 28.9287 35.1732 28.9575 35.3748 28.9671C39.2723 29.2023 42.7905 27.8727 45.5408 25.1176C51.2815 19.377 51.2815 10.0317 45.5456 4.29106L44.5233 9.3261L39.6514 10.1853H39.6466Z" fill="url(#paint8_linear_403_6333)"/>
<path d="M11.1404 38.6772C7.40136 34.9381 7.40136 28.8567 11.1404 25.1176C14.1259 22.1321 18.6426 22.1801 24.5752 25.252C24.3976 24.9112 24.2152 24.5656 24.0184 24.2152L23.9752 24.1336C23.812 23.8264 23.6632 23.5289 23.5144 23.2265C23.4568 23.1113 23.3944 22.9913 23.3368 22.8761C23.2121 22.6217 23.1017 22.3721 22.9865 22.1225C22.9097 21.9545 22.8281 21.7865 22.7561 21.6233C22.6505 21.3833 22.5593 21.1481 22.4585 20.9129C22.3913 20.7449 22.3193 20.5769 22.2521 20.409C22.1609 20.1786 22.0841 19.953 22.0025 19.7226C21.9449 19.5594 21.8825 19.3914 21.8297 19.2282C21.7529 19.0026 21.6905 18.7818 21.6233 18.561C21.5753 18.4026 21.5273 18.2394 21.4841 18.081C21.4217 17.8602 21.3689 17.6442 21.3209 17.4282C21.2825 17.2747 21.2489 17.1163 21.2153 16.9627C21.1721 16.7515 21.1289 16.5403 21.0905 16.3291C21.0617 16.1755 21.0377 16.0267 21.0137 15.8731C20.9849 15.6667 20.9561 15.4603 20.9321 15.2587C20.9225 15.1915 20.9129 15.1291 20.9081 15.0619C14.7355 13.7276 9.3405 15.1195 5.24143 19.2138C-1.74714 26.2024 -1.74714 37.5732 5.24143 44.5666L6.60459 39.7763L11.1356 38.6724L11.1404 38.6772ZM2.25593 38.0196C2.25593 38.0196 2.28953 37.9812 2.30393 37.9668C2.28953 37.986 2.27033 38.0004 2.25593 38.0196Z" fill="url(#paint9_linear_403_6333)"/>
<path d="M45.5361 4.28148L45.54 4.28538L45.5361 4.28148Z" fill="url(#paint10_linear_403_6333)"/>
<path d="M34.2759 27.0471C34.3287 27.2343 34.3815 27.4167 34.4343 27.6039C34.3815 27.4167 34.3335 27.2343 34.2759 27.0471Z" fill="url(#paint11_linear_403_6333)"/>
<path d="M34.2759 27.0471C34.3287 27.2343 34.3815 27.4167 34.4343 27.6039C34.3815 27.4167 34.3335 27.2343 34.2759 27.0471Z" fill="url(#paint12_linear_403_6333)"/>
<path d="M32.6199 22.7177C32.6919 22.8713 32.7591 23.0249 32.8311 23.1785C32.7639 23.0249 32.6919 22.8713 32.6199 22.7177Z" fill="url(#paint13_linear_403_6333)"/>
<path d="M32.6199 22.7177C32.6919 22.8713 32.7591 23.0249 32.8311 23.1785C32.7639 23.0249 32.6919 22.8713 32.6199 22.7177Z" fill="url(#paint14_linear_403_6333)"/>
<path d="M33.0662 23.716C33.1382 23.884 33.2054 24.052 33.2774 24.22C33.2102 24.052 33.1382 23.884 33.0662 23.716Z" fill="url(#paint15_linear_403_6333)"/>
<path d="M33.0662 23.716C33.1382 23.884 33.2054 24.052 33.2774 24.22C33.2102 24.052 33.1382 23.884 33.0662 23.716Z" fill="url(#paint16_linear_403_6333)"/>
<path d="M33.5752 24.9784C33.6568 25.1896 33.7384 25.4056 33.8104 25.6168C33.7336 25.4056 33.6568 25.1944 33.5752 24.9784Z" fill="url(#paint17_linear_403_6333)"/>
<path d="M33.5752 24.9784C33.6568 25.1896 33.7384 25.4056 33.8104 25.6168C33.7336 25.4056 33.6568 25.1944 33.5752 24.9784Z" fill="url(#paint18_linear_403_6333)"/>
<path d="M34.5492 28.8855C34.3572 28.8615 34.1604 28.8375 33.9636 28.8087C34.1604 28.8375 34.3572 28.8663 34.5492 28.8855Z" fill="url(#paint19_linear_403_6333)"/>
<path d="M34.5492 28.8855C34.3572 28.8615 34.1604 28.8375 33.9636 28.8087C34.1604 28.8375 34.3572 28.8663 34.5492 28.8855Z" fill="url(#paint20_linear_403_6333)"/>
<path d="M45.5412 4.29108V4.28628L45.5364 4.28148L44.5188 9.32612L45.5412 4.29108Z" fill="url(#paint21_linear_403_6333)"/>
<path d="M45.5412 4.29108V4.28628L45.5364 4.28148L44.5188 9.32612L45.5412 4.29108Z" fill="url(#paint22_linear_403_6333)"/>
<path d="M25.6984 25.852C25.876 25.948 26.0488 26.0296 26.2216 26.116C26.0488 26.0248 25.876 25.9432 25.6984 25.8472V25.852Z" fill="url(#paint23_linear_403_6333)"/>
<path d="M25.6984 25.852C25.876 25.948 26.0488 26.0296 26.2216 26.116C26.0488 26.0248 25.876 25.9432 25.6984 25.8472V25.852Z" fill="url(#paint24_linear_403_6333)"/>
<path d="M32.37 28.4967C32.1636 28.4487 31.962 28.3959 31.7556 28.3383C31.962 28.3959 32.1684 28.4439 32.37 28.4967Z" fill="url(#paint25_linear_403_6333)"/>
<path d="M32.37 28.4967C32.1636 28.4487 31.962 28.3959 31.7556 28.3383C31.962 28.3959 32.1684 28.4439 32.37 28.4967Z" fill="url(#paint26_linear_403_6333)"/>
<path d="M31.2377 28.1895C31.0265 28.1271 30.8201 28.0647 30.6089 27.9927C30.8201 28.0647 31.0313 28.1271 31.2377 28.1895Z" fill="url(#paint27_linear_403_6333)"/>
<path d="M31.2377 28.1895C31.0265 28.1271 30.8201 28.0647 30.6089 27.9927C30.8201 28.0647 31.0313 28.1271 31.2377 28.1895Z" fill="url(#paint28_linear_403_6333)"/>
<path d="M34.5444 28.0071C34.602 28.2327 34.6548 28.4583 34.7076 28.6791C34.6548 28.4535 34.6068 28.2327 34.5444 28.0071Z" fill="url(#paint29_linear_403_6333)"/>
<path d="M34.5444 28.0071C34.602 28.2327 34.6548 28.4583 34.7076 28.6791C34.6548 28.4535 34.6068 28.2327 34.5444 28.0071Z" fill="url(#paint30_linear_403_6333)"/>
<path d="M30.0709 27.8055C29.8549 27.7287 29.6437 27.6519 29.4277 27.5703C29.6437 27.6519 29.8597 27.7287 30.0709 27.8055Z" fill="url(#paint31_linear_403_6333)"/>
<path d="M30.0709 27.8055C29.8549 27.7287 29.6437 27.6519 29.4277 27.5703C29.6437 27.6519 29.8597 27.7287 30.0709 27.8055Z" fill="url(#paint32_linear_403_6333)"/>
<path d="M33.474 28.7271C33.2724 28.6935 33.0756 28.6551 32.874 28.6119C33.0756 28.6551 33.2772 28.6935 33.474 28.7271Z" fill="url(#paint33_linear_403_6333)"/>
<path d="M33.474 28.7271C33.2724 28.6935 33.0756 28.6551 32.874 28.6119C33.0756 28.6551 33.2772 28.6935 33.474 28.7271Z" fill="url(#paint34_linear_403_6333)"/>
<path d="M25.4248 16.4779C25.66 16.5739 25.9 16.6699 26.14 16.7755C25.9 16.6747 25.6648 16.5739 25.4248 16.4779Z" fill="url(#paint35_linear_403_6333)"/>
<path d="M25.4248 16.4779C25.66 16.5739 25.9 16.6699 26.14 16.7755C25.9 16.6747 25.6648 16.5739 25.4248 16.4779Z" fill="url(#paint36_linear_403_6333)"/>
<path d="M24.1819 16.0027C24.5035 16.1179 24.8251 16.2331 25.1467 16.3627C24.8251 16.2379 24.5035 16.1179 24.1819 16.0027Z" fill="url(#paint37_linear_403_6333)"/>
<path d="M24.1819 16.0027C24.5035 16.1179 24.8251 16.2331 25.1467 16.3627C24.8251 16.2379 24.5035 16.1179 24.1819 16.0027Z" fill="url(#paint38_linear_403_6333)"/>
<path d="M22.1753 15.3787C22.3913 15.4363 22.6073 15.4987 22.8281 15.5659C22.6121 15.4987 22.3913 15.4411 22.1753 15.3787Z" fill="url(#paint39_linear_403_6333)"/>
<path d="M22.1753 15.3787C22.3913 15.4363 22.6073 15.4987 22.8281 15.5659C22.6121 15.4987 22.3913 15.4411 22.1753 15.3787Z" fill="url(#paint40_linear_403_6333)"/>
<path d="M23.1833 15.6715C23.4041 15.7387 23.6249 15.8155 23.8505 15.8923C23.6297 15.8155 23.4041 15.7435 23.1833 15.6715Z" fill="url(#paint41_linear_403_6333)"/>
<path d="M23.1833 15.6715C23.4041 15.7387 23.6249 15.8155 23.8505 15.8923C23.6297 15.8155 23.4041 15.7435 23.1833 15.6715Z" fill="url(#paint42_linear_403_6333)"/>
<path d="M21.0762 15.1051C21.3306 15.1627 21.585 15.2203 21.8441 15.2875C21.5898 15.2203 21.3306 15.1627 21.0762 15.1051Z" fill="url(#paint43_linear_403_6333)"/>
<path d="M21.0762 15.1051C21.3306 15.1627 21.585 15.2203 21.8441 15.2875C21.5898 15.2203 21.3306 15.1627 21.0762 15.1051Z" fill="url(#paint44_linear_403_6333)"/>
<path d="M21.4889 18.0858C21.4265 17.865 21.3737 17.649 21.3257 17.433C21.3785 17.649 21.4313 17.865 21.4889 18.0858Z" fill="url(#paint45_linear_403_6333)"/>
<path d="M21.4889 18.0858C21.4265 17.865 21.3737 17.649 21.3257 17.433C21.3785 17.649 21.4313 17.865 21.4889 18.0858Z" fill="url(#paint46_linear_403_6333)"/>
<path d="M44.5187 9.3261L39.6421 10.1805C39.6421 10.1805 39.6421 10.1805 39.6469 10.1853L44.5187 9.3261Z" fill="url(#paint47_linear_403_6333)"/>
<path d="M44.5187 9.3261L39.6421 10.1805C39.6421 10.1805 39.6421 10.1805 39.6469 10.1853L44.5187 9.3261Z" fill="url(#paint48_linear_403_6333)"/>
<path d="M27.6328 17.457C27.8056 17.5434 27.9784 17.6298 28.156 17.7162C27.9832 17.6298 27.8104 17.5434 27.6328 17.457Z" fill="url(#paint49_linear_403_6333)"/>
<path d="M27.6328 17.457C27.8056 17.5434 27.9784 17.6298 28.156 17.7162C27.9832 17.6298 27.8104 17.5434 27.6328 17.457Z" fill="url(#paint50_linear_403_6333)"/>
<path d="M28.6648 17.9802C28.8328 18.0714 29.0056 18.1626 29.1784 18.2586C29.0056 18.1674 28.8376 18.0714 28.6648 17.9802Z" fill="url(#paint51_linear_403_6333)"/>
<path d="M28.6648 17.9802C28.8328 18.0714 29.0056 18.1626 29.1784 18.2586C29.0056 18.1674 28.8376 18.0714 28.6648 17.9802Z" fill="url(#paint52_linear_403_6333)"/>
<path d="M22.761 21.6233C22.6554 21.3833 22.5642 21.1481 22.4634 20.9129C22.5594 21.1481 22.6554 21.3833 22.761 21.6233Z" fill="url(#paint53_linear_403_6333)"/>
<path d="M22.761 21.6233C22.6554 21.3833 22.5642 21.1481 22.4634 20.9129C22.5594 21.1481 22.6554 21.3833 22.761 21.6233Z" fill="url(#paint54_linear_403_6333)"/>
<path d="M31.5928 20.6921C31.6744 20.8457 31.7608 20.9993 31.8376 21.1481C31.756 20.9945 31.6744 20.8457 31.5928 20.6921Z" fill="url(#paint55_linear_403_6333)"/>
<path d="M31.5928 20.6921C31.6744 20.8457 31.7608 20.9993 31.8376 21.1481C31.756 20.9945 31.6744 20.8457 31.5928 20.6921Z" fill="url(#paint56_linear_403_6333)"/>
<path d="M21.8395 19.233C21.7627 19.0074 21.7003 18.7866 21.6331 18.5658C21.7003 18.7866 21.7675 19.0074 21.8395 19.233Z" fill="url(#paint57_linear_403_6333)"/>
<path d="M21.8395 19.233C21.7627 19.0074 21.7003 18.7866 21.6331 18.5658C21.7003 18.7866 21.7675 19.0074 21.8395 19.233Z" fill="url(#paint58_linear_403_6333)"/>
<path d="M22.2616 20.409C22.1704 20.1786 22.0936 19.953 22.012 19.7226C22.0936 19.9482 22.1704 20.1786 22.2616 20.409Z" fill="url(#paint59_linear_403_6333)"/>
<path d="M22.2616 20.409C22.1704 20.1786 22.0936 19.953 22.012 19.7226C22.0936 19.9482 22.1704 20.1786 22.2616 20.409Z" fill="url(#paint60_linear_403_6333)"/>
<path d="M30.7612 19.0689H30.7573V19.065V19.0689H30.7612Z" fill="url(#paint61_linear_403_6333)"/>
<path d="M21.0762 15.1051C21.0234 15.0955 20.9706 15.0811 20.9226 15.0667C20.9754 15.0763 21.0282 15.0907 21.0762 15.1003V15.1051Z" fill="url(#paint62_linear_403_6333)"/>
<path d="M21.0762 15.1051C21.0234 15.0955 20.9706 15.0811 20.9226 15.0667C20.9754 15.0763 21.0282 15.0907 21.0762 15.1003V15.1051Z" fill="url(#paint63_linear_403_6333)"/>
<path d="M30.7574 19.0698C30.4022 18.897 30.0326 18.7146 29.6486 18.5082C29.4902 18.4218 29.3366 18.3402 29.1782 18.2538C29.3318 18.3402 29.4902 18.4218 29.6438 18.5082C30.0326 18.7146 30.3974 18.897 30.7574 19.0698Z" fill="url(#paint64_linear_403_6333)"/>
<path d="M30.7574 19.0698C30.4022 18.897 30.0326 18.7146 29.6486 18.5082C29.4902 18.4218 29.3366 18.3402 29.1782 18.2538C29.3318 18.3402 29.4902 18.4218 29.6438 18.5082C30.0326 18.7146 30.3974 18.897 30.7574 19.0698Z" fill="url(#paint65_linear_403_6333)"/>
<path d="M22.8232 15.5611C22.9432 15.5947 23.0632 15.6331 23.1832 15.6715C23.0632 15.6331 22.9432 15.5995 22.8232 15.5611Z" fill="url(#paint66_linear_403_6333)"/>
<path d="M22.8232 15.5611C22.9432 15.5947 23.0632 15.6331 23.1832 15.6715C23.0632 15.6331 22.9432 15.5995 22.8232 15.5611Z" fill="url(#paint67_linear_403_6333)"/>
<path d="M21.8442 15.2875C21.9546 15.3163 22.065 15.3451 22.1754 15.3787C22.065 15.3499 21.9546 15.3163 21.8442 15.2875Z" fill="url(#paint68_linear_403_6333)"/>
<path d="M21.8442 15.2875C21.9546 15.3163 22.065 15.3451 22.1754 15.3787C22.065 15.3499 21.9546 15.3163 21.8442 15.2875Z" fill="url(#paint69_linear_403_6333)"/>
<path d="M34.5493 28.8855C34.6213 28.8951 34.6885 28.9047 34.7605 28.9143C34.7605 28.9143 34.7605 28.9095 34.7605 28.9047C34.6885 28.8999 34.6213 28.8903 34.5541 28.8855H34.5493Z" fill="url(#paint70_linear_403_6333)"/>
<path d="M34.5493 28.8855C34.6213 28.8951 34.6885 28.9047 34.7605 28.9143C34.7605 28.9143 34.7605 28.9095 34.7605 28.9047C34.6885 28.8999 34.6213 28.8903 34.5541 28.8855H34.5493Z" fill="url(#paint71_linear_403_6333)"/>
<path d="M28.2134 27.0711C28.0214 26.9847 27.8198 26.8935 27.623 26.8023C27.8198 26.8935 28.0166 26.9895 28.2134 27.0711Z" fill="url(#paint72_linear_403_6333)"/>
<path d="M28.2134 27.0711C28.0214 26.9847 27.8198 26.8935 27.623 26.8023C27.8198 26.8935 28.0166 26.9895 28.2134 27.0711Z" fill="url(#paint73_linear_403_6333)"/>
<path d="M28.1509 17.7162C28.3237 17.8026 28.4917 17.889 28.6645 17.9754C28.4917 17.8842 28.3237 17.7978 28.1509 17.7162Z" fill="url(#paint74_linear_403_6333)"/>
<path d="M28.1509 17.7162C28.3237 17.8026 28.4917 17.889 28.6645 17.9754C28.4917 17.8842 28.3237 17.7978 28.1509 17.7162Z" fill="url(#paint75_linear_403_6333)"/>
<path d="M32.8695 28.6119C32.7016 28.5783 32.5384 28.5351 32.3704 28.4967C32.5384 28.5351 32.7064 28.5783 32.8695 28.6119Z" fill="url(#paint76_linear_403_6333)"/>
<path d="M32.8695 28.6119C32.7016 28.5783 32.5384 28.5351 32.3704 28.4967C32.5384 28.5351 32.7064 28.5783 32.8695 28.6119Z" fill="url(#paint77_linear_403_6333)"/>
<path d="M30.6038 27.9927C30.4262 27.9351 30.2486 27.8679 30.071 27.8055C30.2486 27.8679 30.431 27.9351 30.6038 27.9927Z" fill="url(#paint78_linear_403_6333)"/>
<path d="M30.6038 27.9927C30.4262 27.9351 30.2486 27.8679 30.071 27.8055C30.2486 27.8679 30.431 27.9351 30.6038 27.9927Z" fill="url(#paint79_linear_403_6333)"/>
<path d="M31.7511 28.3383C31.5783 28.2903 31.4055 28.2375 31.2327 28.1895C31.4055 28.2423 31.5783 28.2951 31.7511 28.3383Z" fill="url(#paint80_linear_403_6333)"/>
<path d="M31.7511 28.3383C31.5783 28.2903 31.4055 28.2375 31.2327 28.1895C31.4055 28.2423 31.5783 28.2951 31.7511 28.3383Z" fill="url(#paint81_linear_403_6333)"/>
<path d="M23.8503 15.8923C23.9607 15.9307 24.0711 15.9643 24.1815 16.0075C24.0711 15.9691 23.9607 15.9307 23.8503 15.8923Z" fill="url(#paint82_linear_403_6333)"/>
<path d="M23.8503 15.8923C23.9607 15.9307 24.0711 15.9643 24.1815 16.0075C24.0711 15.9691 23.9607 15.9307 23.8503 15.8923Z" fill="url(#paint83_linear_403_6333)"/>
<path d="M33.8101 25.612C33.8629 25.7656 33.9109 25.9144 33.9637 26.0632C33.9109 25.9144 33.8629 25.7608 33.8101 25.612Z" fill="url(#paint84_linear_403_6333)"/>
<path d="M33.8101 25.612C33.8629 25.7656 33.9109 25.9144 33.9637 26.0632C33.9109 25.9144 33.8629 25.7608 33.8101 25.612Z" fill="url(#paint85_linear_403_6333)"/>
<path d="M31.3141 20.1786C31.1125 19.7946 30.9253 19.425 30.7573 19.0698C30.9301 19.425 31.1125 19.7946 31.3141 20.1786Z" fill="url(#paint86_linear_403_6333)"/>
<path d="M31.3141 20.1786C31.1125 19.7946 30.9253 19.425 30.7573 19.0698C30.9301 19.425 31.1125 19.7946 31.3141 20.1786Z" fill="url(#paint87_linear_403_6333)"/>
<path d="M22.0121 19.7274C21.9546 19.5642 21.8922 19.3962 21.8394 19.233C21.8922 19.3962 21.9546 19.5594 22.0121 19.7274Z" fill="url(#paint88_linear_403_6333)"/>
<path d="M22.0121 19.7274C21.9546 19.5642 21.8922 19.3962 21.8394 19.233C21.8922 19.3962 21.9546 19.5594 22.0121 19.7274Z" fill="url(#paint89_linear_403_6333)"/>
<path d="M22.4681 20.9129C22.4009 20.7449 22.3289 20.5769 22.2617 20.4089C22.3241 20.5769 22.3961 20.7449 22.4681 20.9129Z" fill="url(#paint90_linear_403_6333)"/>
<path d="M22.4681 20.9129C22.4009 20.7449 22.3289 20.5769 22.2617 20.4089C22.3241 20.5769 22.3961 20.7449 22.4681 20.9129Z" fill="url(#paint91_linear_403_6333)"/>
<path d="M32.3511 22.1657C32.4423 22.3529 32.5287 22.5353 32.6151 22.7225C32.5287 22.5401 32.4423 22.3529 32.3511 22.1657Z" fill="url(#paint92_linear_403_6333)"/>
<path d="M32.3511 22.1657C32.4423 22.3529 32.5287 22.5353 32.6151 22.7225C32.5287 22.5401 32.4423 22.3529 32.3511 22.1657Z" fill="url(#paint93_linear_403_6333)"/>
<path d="M33.2773 24.2248C33.3829 24.4792 33.4789 24.7288 33.5749 24.9784C33.4789 24.7288 33.3781 24.4792 33.2773 24.2248Z" fill="url(#paint94_linear_403_6333)"/>
<path d="M33.2773 24.2248C33.3829 24.4792 33.4789 24.7288 33.5749 24.9784C33.4789 24.7288 33.3781 24.4792 33.2773 24.2248Z" fill="url(#paint95_linear_403_6333)"/>
<path d="M34.7559 28.9047C34.7415 28.8327 34.7175 28.7559 34.7031 28.6791C34.7175 28.7511 34.7367 28.8279 34.7559 28.9047Z" fill="url(#paint96_linear_403_6333)"/>
<path d="M34.7559 28.9047C34.7415 28.8327 34.7175 28.7559 34.7031 28.6791C34.7175 28.7511 34.7367 28.8279 34.7559 28.9047Z" fill="url(#paint97_linear_403_6333)"/>
<path d="M21.0951 16.3339C21.0663 16.1803 21.0423 16.0315 21.0183 15.8779C21.0423 16.0267 21.0663 16.1803 21.0951 16.3339Z" fill="url(#paint98_linear_403_6333)"/>
<path d="M21.0951 16.3339C21.0663 16.1803 21.0423 16.0315 21.0183 15.8779C21.0423 16.0267 21.0663 16.1803 21.0951 16.3339Z" fill="url(#paint99_linear_403_6333)"/>
<path d="M21.3258 17.4331C21.2874 17.2795 21.2538 17.1211 21.2202 16.9675C21.2538 17.1211 21.2922 17.2795 21.3258 17.4331Z" fill="url(#paint100_linear_403_6333)"/>
<path d="M21.3258 17.4331C21.2874 17.2795 21.2538 17.1211 21.2202 16.9675C21.2538 17.1211 21.2922 17.2795 21.3258 17.4331Z" fill="url(#paint101_linear_403_6333)"/>
<path d="M31.8423 21.1481C31.9431 21.3353 32.0343 21.5273 32.1303 21.7145C32.0343 21.5273 31.9431 21.3401 31.8423 21.1481Z" fill="url(#paint102_linear_403_6333)"/>
<path d="M31.8423 21.1481C31.9431 21.3353 32.0343 21.5273 32.1303 21.7145C32.0343 21.5273 31.9431 21.3401 31.8423 21.1481Z" fill="url(#paint103_linear_403_6333)"/>
<path d="M34.4338 27.6039C34.4722 27.7383 34.5106 27.8775 34.5442 28.0119C34.5106 27.8775 34.4722 27.7431 34.4338 27.6039Z" fill="url(#paint104_linear_403_6333)"/>
<path d="M34.4338 27.6039C34.4722 27.7383 34.5106 27.8775 34.5442 28.0119C34.5106 27.8775 34.4722 27.7431 34.4338 27.6039Z" fill="url(#paint105_linear_403_6333)"/>
<path d="M34.1411 26.6055C34.1891 26.7543 34.2323 26.9031 34.2755 27.0471C34.2323 26.8983 34.1891 26.7543 34.1411 26.6055Z" fill="url(#paint106_linear_403_6333)"/>
<path d="M34.1411 26.6055C34.1891 26.7543 34.2323 26.9031 34.2755 27.0471C34.2323 26.8983 34.1891 26.7543 34.1411 26.6055Z" fill="url(#paint107_linear_403_6333)"/>
<path d="M20.9224 15.0715C20.9224 15.0715 20.9176 15.0715 20.9128 15.0715C20.9176 15.1339 20.932 15.2011 20.9368 15.2683C20.9272 15.2011 20.9224 15.1387 20.9176 15.0763L20.9224 15.0715Z" fill="url(#paint108_linear_403_6333)"/>
<path d="M20.9224 15.0715C20.9224 15.0715 20.9176 15.0715 20.9128 15.0715C20.9176 15.1339 20.932 15.2011 20.9368 15.2683C20.9272 15.2011 20.9224 15.1387 20.9176 15.0763L20.9224 15.0715Z" fill="url(#paint109_linear_403_6333)"/>
<path d="M24.0231 24.2104C24.2199 24.5608 24.4023 24.9064 24.5799 25.2472C24.9207 25.4248 25.2663 25.6072 25.6167 25.804L25.6983 25.852C25.8759 25.948 26.0487 26.0296 26.2215 26.1208C26.4711 26.2503 26.7206 26.3799 26.9654 26.4999C27.1862 26.6055 27.4022 26.7063 27.623 26.8071C27.8198 26.8983 28.0166 26.9943 28.2134 27.0759C28.4342 27.1719 28.6502 27.2583 28.871 27.3495C29.0582 27.4263 29.2454 27.5031 29.4278 27.5751C29.6438 27.6567 29.8597 27.7335 30.0709 27.8103C30.2485 27.8727 30.4309 27.9399 30.6037 27.9975C30.8149 28.0695 31.0261 28.1319 31.2325 28.1943C31.4053 28.2471 31.5781 28.2999 31.7509 28.3431C31.9573 28.4007 32.1637 28.4487 32.3653 28.5015C32.5333 28.5399 32.7013 28.5831 32.8645 28.6167C33.066 28.6599 33.2676 28.6983 33.4644 28.7319C33.6276 28.7607 33.7908 28.7895 33.954 28.8135C34.1508 28.8423 34.3476 28.8711 34.5396 28.8903C34.6116 28.8999 34.6788 28.9047 34.746 28.9095C34.7316 28.8375 34.7124 28.7607 34.6932 28.6839C34.6404 28.4583 34.5876 28.2375 34.53 28.0119C34.4964 27.8775 34.458 27.7431 34.4196 27.6039C34.3668 27.4167 34.3188 27.2343 34.2612 27.0471C34.218 26.8983 34.1748 26.7543 34.1268 26.6055C34.0692 26.4279 34.0116 26.2455 33.9492 26.068C33.8964 25.9192 33.8484 25.7656 33.7956 25.6168C33.7188 25.4056 33.642 25.1944 33.5604 24.9784C33.4644 24.7288 33.3636 24.4792 33.2628 24.2248C33.1956 24.0568 33.1236 23.8888 33.0516 23.7208C32.9748 23.5432 32.8932 23.3608 32.8117 23.1832C32.7445 23.0297 32.6725 22.8761 32.6005 22.7225C32.5141 22.5401 32.4277 22.3529 32.3365 22.1657C32.2645 22.0169 32.1877 21.8633 32.1109 21.7145C32.0149 21.5273 31.9237 21.3401 31.8229 21.1481C31.7413 20.9945 31.6597 20.8457 31.5781 20.6921C31.4869 20.5193 31.3957 20.3513 31.2997 20.1785C31.0933 19.7946 30.9109 19.425 30.7429 19.0698C30.3877 18.897 30.0181 18.7146 29.6294 18.5082C29.471 18.4218 29.3174 18.3402 29.1638 18.2538C28.991 18.1626 28.823 18.0666 28.6502 17.9754C28.4774 17.8842 28.3094 17.7978 28.1366 17.7162C27.9638 17.6298 27.791 17.5386 27.6134 17.457C27.4502 17.3754 27.287 17.2986 27.1238 17.2218C26.9366 17.1354 26.7542 17.049 26.5671 16.9674C26.4183 16.9003 26.2695 16.8331 26.1207 16.7707C25.8807 16.6699 25.6455 16.5691 25.4055 16.4731C25.3143 16.4347 25.2183 16.3963 25.1271 16.3579C24.8055 16.2331 24.4839 16.1131 24.1623 15.9979C24.0519 15.9595 23.9415 15.9211 23.8311 15.8827C23.6103 15.8059 23.3848 15.7339 23.164 15.6619C23.044 15.6235 22.924 15.5899 22.804 15.5515C22.588 15.4843 22.3672 15.4267 22.1512 15.3643C22.0408 15.3355 21.9304 15.3019 21.82 15.2731C21.5656 15.2059 21.3064 15.1483 21.052 15.0907C20.9992 15.0811 20.9464 15.0667 20.8984 15.0571C20.9032 15.1243 20.908 15.1867 20.9176 15.2491C20.9416 15.4507 20.9656 15.6571 20.9992 15.8635C21.0232 16.0123 21.0472 16.1659 21.076 16.3195C21.1144 16.5307 21.1528 16.7419 21.2008 16.953C21.2344 17.1066 21.2728 17.265 21.3064 17.4186C21.3592 17.6346 21.412 17.8506 21.4696 18.0714C21.5128 18.2298 21.5608 18.393 21.6088 18.5514C21.676 18.7722 21.7432 18.993 21.8152 19.2186C21.868 19.3818 21.9304 19.545 21.988 19.713C22.0696 19.9386 22.1464 20.1689 22.2376 20.3993C22.3 20.5673 22.372 20.7353 22.444 20.9033C22.54 21.1385 22.636 21.3737 22.7416 21.6137C22.8136 21.7769 22.8952 21.9449 22.972 22.1129C23.0872 22.3625 23.1976 22.6121 23.3224 22.8665C23.38 22.9817 23.4424 23.1017 23.5 23.2168C23.6487 23.5192 23.7975 23.8168 23.9607 24.124L24.0039 24.2056L24.0231 24.2104Z" fill="url(#paint110_linear_403_6333)"/>
<path d="M24.0231 24.2104C24.2199 24.5608 24.4023 24.9064 24.5799 25.2472C24.9207 25.4248 25.2663 25.6072 25.6167 25.804L25.6983 25.852C25.8759 25.948 26.0487 26.0296 26.2215 26.1208C26.4711 26.2503 26.7206 26.3799 26.9654 26.4999C27.1862 26.6055 27.4022 26.7063 27.623 26.8071C27.8198 26.8983 28.0166 26.9943 28.2134 27.0759C28.4342 27.1719 28.6502 27.2583 28.871 27.3495C29.0582 27.4263 29.2454 27.5031 29.4278 27.5751C29.6438 27.6567 29.8597 27.7335 30.0709 27.8103C30.2485 27.8727 30.4309 27.9399 30.6037 27.9975C30.8149 28.0695 31.0261 28.1319 31.2325 28.1943C31.4053 28.2471 31.5781 28.2999 31.7509 28.3431C31.9573 28.4007 32.1637 28.4487 32.3653 28.5015C32.5333 28.5399 32.7013 28.5831 32.8645 28.6167C33.066 28.6599 33.2676 28.6983 33.4644 28.7319C33.6276 28.7607 33.7908 28.7895 33.954 28.8135C34.1508 28.8423 34.3476 28.8711 34.5396 28.8903C34.6116 28.8999 34.6788 28.9047 34.746 28.9095C34.7316 28.8375 34.7124 28.7607 34.6932 28.6839C34.6404 28.4583 34.5876 28.2375 34.53 28.0119C34.4964 27.8775 34.458 27.7431 34.4196 27.6039C34.3668 27.4167 34.3188 27.2343 34.2612 27.0471C34.218 26.8983 34.1748 26.7543 34.1268 26.6055C34.0692 26.4279 34.0116 26.2455 33.9492 26.068C33.8964 25.9192 33.8484 25.7656 33.7956 25.6168C33.7188 25.4056 33.642 25.1944 33.5604 24.9784C33.4644 24.7288 33.3636 24.4792 33.2628 24.2248C33.1956 24.0568 33.1236 23.8888 33.0516 23.7208C32.9748 23.5432 32.8932 23.3608 32.8117 23.1832C32.7445 23.0297 32.6725 22.8761 32.6005 22.7225C32.5141 22.5401 32.4277 22.3529 32.3365 22.1657C32.2645 22.0169 32.1877 21.8633 32.1109 21.7145C32.0149 21.5273 31.9237 21.3401 31.8229 21.1481C31.7413 20.9945 31.6597 20.8457 31.5781 20.6921C31.4869 20.5193 31.3957 20.3513 31.2997 20.1785C31.0933 19.7946 30.9109 19.425 30.7429 19.0698C30.3877 18.897 30.0181 18.7146 29.6294 18.5082C29.471 18.4218 29.3174 18.3402 29.1638 18.2538C28.991 18.1626 28.823 18.0666 28.6502 17.9754C28.4774 17.8842 28.3094 17.7978 28.1366 17.7162C27.9638 17.6298 27.791 17.5386 27.6134 17.457C27.4502 17.3754 27.287 17.2986 27.1238 17.2218C26.9366 17.1354 26.7542 17.049 26.5671 16.9674C26.4183 16.9003 26.2695 16.8331 26.1207 16.7707C25.8807 16.6699 25.6455 16.5691 25.4055 16.4731C25.3143 16.4347 25.2183 16.3963 25.1271 16.3579C24.8055 16.2331 24.4839 16.1131 24.1623 15.9979C24.0519 15.9595 23.9415 15.9211 23.8311 15.8827C23.6103 15.8059 23.3848 15.7339 23.164 15.6619C23.044 15.6235 22.924 15.5899 22.804 15.5515C22.588 15.4843 22.3672 15.4267 22.1512 15.3643C22.0408 15.3355 21.9304 15.3019 21.82 15.2731C21.5656 15.2059 21.3064 15.1483 21.052 15.0907C20.9992 15.0811 20.9464 15.0667 20.8984 15.0571C20.9032 15.1243 20.908 15.1867 20.9176 15.2491C20.9416 15.4507 20.9656 15.6571 20.9992 15.8635C21.0232 16.0123 21.0472 16.1659 21.076 16.3195C21.1144 16.5307 21.1528 16.7419 21.2008 16.953C21.2344 17.1066 21.2728 17.265 21.3064 17.4186C21.3592 17.6346 21.412 17.8506 21.4696 18.0714C21.5128 18.2298 21.5608 18.393 21.6088 18.5514C21.676 18.7722 21.7432 18.993 21.8152 19.2186C21.868 19.3818 21.9304 19.545 21.988 19.713C22.0696 19.9386 22.1464 20.1689 22.2376 20.3993C22.3 20.5673 22.372 20.7353 22.444 20.9033C22.54 21.1385 22.636 21.3737 22.7416 21.6137C22.8136 21.7769 22.8952 21.9449 22.972 22.1129C23.0872 22.3625 23.1976 22.6121 23.3224 22.8665C23.38 22.9817 23.4424 23.1017 23.5 23.2168C23.6487 23.5192 23.7975 23.8168 23.9607 24.124L24.0039 24.2056L24.0231 24.2104Z" fill="url(#paint111_linear_403_6333)"/>
<path d="M24.0231 24.2104C24.2199 24.5608 24.4023 24.9064 24.5799 25.2472C24.9207 25.4248 25.2663 25.6072 25.6167 25.804L25.6983 25.852C25.8759 25.948 26.0487 26.0296 26.2215 26.1208C26.4711 26.2503 26.7206 26.3799 26.9654 26.4999C27.1862 26.6055 27.4022 26.7063 27.623 26.8071C27.8198 26.8983 28.0166 26.9943 28.2134 27.0759C28.4342 27.1719 28.6502 27.2583 28.871 27.3495C29.0582 27.4263 29.2454 27.5031 29.4278 27.5751C29.6438 27.6567 29.8597 27.7335 30.0709 27.8103C30.2485 27.8727 30.4309 27.9399 30.6037 27.9975C30.8149 28.0695 31.0261 28.1319 31.2325 28.1943C31.4053 28.2471 31.5781 28.2999 31.7509 28.3431C31.9573 28.4007 32.1637 28.4487 32.3653 28.5015C32.5333 28.5399 32.7013 28.5831 32.8645 28.6167C33.066 28.6599 33.2676 28.6983 33.4644 28.7319C33.6276 28.7607 33.7908 28.7895 33.954 28.8135C34.1508 28.8423 34.3476 28.8711 34.5396 28.8903C34.6116 28.8999 34.6788 28.9047 34.746 28.9095C34.7316 28.8375 34.7124 28.7607 34.6932 28.6839C34.6404 28.4583 34.5876 28.2375 34.53 28.0119C34.4964 27.8775 34.458 27.7431 34.4196 27.6039C34.3668 27.4167 34.3188 27.2343 34.2612 27.0471C34.218 26.8983 34.1748 26.7543 34.1268 26.6055C34.0692 26.4279 34.0116 26.2455 33.9492 26.068C33.8964 25.9192 33.8484 25.7656 33.7956 25.6168C33.7188 25.4056 33.642 25.1944 33.5604 24.9784C33.4644 24.7288 33.3636 24.4792 33.2628 24.2248C33.1956 24.0568 33.1236 23.8888 33.0516 23.7208C32.9748 23.5432 32.8932 23.3608 32.8117 23.1832C32.7445 23.0297 32.6725 22.8761 32.6005 22.7225C32.5141 22.5401 32.4277 22.3529 32.3365 22.1657C32.2645 22.0169 32.1877 21.8633 32.1109 21.7145C32.0149 21.5273 31.9237 21.3401 31.8229 21.1481C31.7413 20.9945 31.6597 20.8457 31.5781 20.6921C31.4869 20.5193 31.3957 20.3513 31.2997 20.1785C31.0933 19.7946 30.9109 19.425 30.7429 19.0698C30.3877 18.897 30.0181 18.7146 29.6294 18.5082C29.471 18.4218 29.3174 18.3402 29.1638 18.2538C28.991 18.1626 28.823 18.0666 28.6502 17.9754C28.4774 17.8842 28.3094 17.7978 28.1366 17.7162C27.9638 17.6298 27.791 17.5386 27.6134 17.457C27.4502 17.3754 27.287 17.2986 27.1238 17.2218C26.9366 17.1354 26.7542 17.049 26.5671 16.9674C26.4183 16.9003 26.2695 16.8331 26.1207 16.7707C25.8807 16.6699 25.6455 16.5691 25.4055 16.4731C25.3143 16.4347 25.2183 16.3963 25.1271 16.3579C24.8055 16.2331 24.4839 16.1131 24.1623 15.9979C24.0519 15.9595 23.9415 15.9211 23.8311 15.8827C23.6103 15.8059 23.3848 15.7339 23.164 15.6619C23.044 15.6235 22.924 15.5899 22.804 15.5515C22.588 15.4843 22.3672 15.4267 22.1512 15.3643C22.0408 15.3355 21.9304 15.3019 21.82 15.2731C21.5656 15.2059 21.3064 15.1483 21.052 15.0907C20.9992 15.0811 20.9464 15.0667 20.8984 15.0571C20.9032 15.1243 20.908 15.1867 20.9176 15.2491C20.9416 15.4507 20.9656 15.6571 20.9992 15.8635C21.0232 16.0123 21.0472 16.1659 21.076 16.3195C21.1144 16.5307 21.1528 16.7419 21.2008 16.953C21.2344 17.1066 21.2728 17.265 21.3064 17.4186C21.3592 17.6346 21.412 17.8506 21.4696 18.0714C21.5128 18.2298 21.5608 18.393 21.6088 18.5514C21.676 18.7722 21.7432 18.993 21.8152 19.2186C21.868 19.3818 21.9304 19.545 21.988 19.713C22.0696 19.9386 22.1464 20.1689 22.2376 20.3993C22.3 20.5673 22.372 20.7353 22.444 20.9033C22.54 21.1385 22.636 21.3737 22.7416 21.6137C22.8136 21.7769 22.8952 21.9449 22.972 22.1129C23.0872 22.3625 23.1976 22.6121 23.3224 22.8665C23.38 22.9817 23.4424 23.1017 23.5 23.2168C23.6487 23.5192 23.7975 23.8168 23.9607 24.124L24.0039 24.2056L24.0231 24.2104Z" fill="url(#paint112_linear_403_6333)"/>
<defs>
<linearGradient id="paint0_linear_403_6333" x1="44.2157" y1="50.8777" x2="44.2157" y2="38.4653" gradientUnits="userSpaceOnUse">
<stop stop-color="#3B3B39"/>
<stop offset="0.41" stop-color="#515150"/>
<stop offset="1" stop-color="#6F6F6F"/>
</linearGradient>
<linearGradient id="paint1_linear_403_6333" x1="54.0838" y1="50.9257" x2="54.0838" y2="38.5133" gradientUnits="userSpaceOnUse">
<stop stop-color="#3B3B39"/>
<stop offset="0.41" stop-color="#515150"/>
<stop offset="1" stop-color="#6F6F6F"/>
</linearGradient>
<linearGradient id="paint2_linear_403_6333" x1="63.5475" y1="50.8969" x2="63.5475" y2="38.4845" gradientUnits="userSpaceOnUse">
<stop stop-color="#3B3B39"/>
<stop offset="0.41" stop-color="#515150"/>
<stop offset="1" stop-color="#6F6F6F"/>
</linearGradient>
<linearGradient id="paint3_linear_403_6333" x1="73.8282" y1="50.9401" x2="73.8282" y2="38.5277" gradientUnits="userSpaceOnUse">
<stop stop-color="#3B3B39"/>
<stop offset="0.41" stop-color="#515150"/>
<stop offset="1" stop-color="#6F6F6F"/>
</linearGradient>
<linearGradient id="paint4_linear_403_6333" x1="83.9079" y1="50.8969" x2="83.9079" y2="38.4845" gradientUnits="userSpaceOnUse">
<stop stop-color="#3B3B39"/>
<stop offset="0.41" stop-color="#515150"/>
<stop offset="1" stop-color="#6F6F6F"/>
</linearGradient>
<linearGradient id="paint5_linear_403_6333" x1="93.3622" y1="50.8921" x2="93.3622" y2="38.4797" gradientUnits="userSpaceOnUse">
<stop stop-color="#3B3B39"/>
<stop offset="0.41" stop-color="#515150"/>
<stop offset="1" stop-color="#6F6F6F"/>
</linearGradient>
<linearGradient id="paint6_linear_403_6333" x1="15.4014" y1="54.8928" x2="34.5288" y2="4.5395" gradientUnits="userSpaceOnUse">
<stop stop-color="#E65125"/>
<stop offset="1" stop-color="#CB2F27"/>
</linearGradient>
<linearGradient id="paint7_linear_403_6333" x1="14.3945" y1="54.5103" x2="33.5219" y2="4.15697" gradientUnits="userSpaceOnUse">
<stop stop-color="#E65125"/>
<stop offset="1" stop-color="#CB2F27"/>
</linearGradient>
<linearGradient id="paint8_linear_403_6333" x1="-0.646913" y1="15.9451" x2="49.1947" y2="15.9451" gradientUnits="userSpaceOnUse">
<stop stop-color="#3DA9DF"/>
<stop offset="1" stop-color="#2281C5"/>
</linearGradient>
<linearGradient id="paint9_linear_403_6333" x1="-0.646827" y1="28.9039" x2="49.1948" y2="28.9039" gradientUnits="userSpaceOnUse">
<stop stop-color="#3DA9DF"/>
<stop offset="1" stop-color="#2281C5"/>
</linearGradient>
<linearGradient id="paint10_linear_403_6333" x1="36.3586" y1="3.63414" x2="53.3694" y2="3.63414" gradientUnits="userSpaceOnUse">
<stop stop-color="#3DA9DF"/>
<stop offset="1" stop-color="#2281C5"/>
</linearGradient>
<linearGradient id="paint11_linear_403_6333" x1="22.451" y1="57.5707" x2="41.5783" y2="7.21728" gradientUnits="userSpaceOnUse">
<stop stop-color="#E65125"/>
<stop offset="1" stop-color="#CB2F27"/>
</linearGradient>
<linearGradient id="paint12_linear_403_6333" x1="-0.646836" y1="26.4118" x2="49.195" y2="26.4118" gradientUnits="userSpaceOnUse">
<stop stop-color="#3DA9DF"/>
<stop offset="1" stop-color="#2281C5"/>
</linearGradient>
<linearGradient id="paint13_linear_403_6333" x1="19.4297" y1="56.4231" x2="38.5572" y2="6.06961" gradientUnits="userSpaceOnUse">
<stop stop-color="#E65125"/>
<stop offset="1" stop-color="#CB2F27"/>
</linearGradient>
<linearGradient id="paint14_linear_403_6333" x1="-0.646888" y1="22.4245" x2="49.195" y2="22.4245" gradientUnits="userSpaceOnUse">
<stop stop-color="#3DA9DF"/>
<stop offset="1" stop-color="#2281C5"/>
</linearGradient>
<linearGradient id="paint15_linear_403_6333" x1="20.4367" y1="56.8056" x2="39.564" y2="6.45219" gradientUnits="userSpaceOnUse">
<stop stop-color="#E65125"/>
<stop offset="1" stop-color="#CB2F27"/>
</linearGradient>
<linearGradient id="paint16_linear_403_6333" x1="-0.646986" y1="23.4213" x2="49.1949" y2="23.4213" gradientUnits="userSpaceOnUse">
<stop stop-color="#3DA9DF"/>
<stop offset="1" stop-color="#2281C5"/>
</linearGradient>
<linearGradient id="paint17_linear_403_6333" x1="21.4441" y1="57.1881" x2="40.5716" y2="6.83487" gradientUnits="userSpaceOnUse">
<stop stop-color="#E65125"/>
<stop offset="1" stop-color="#CB2F27"/>
</linearGradient>
<linearGradient id="paint18_linear_403_6333" x1="-0.646395" y1="24.4182" x2="49.195" y2="24.4182" gradientUnits="userSpaceOnUse">
<stop stop-color="#3DA9DF"/>
<stop offset="1" stop-color="#2281C5"/>
</linearGradient>
<linearGradient id="paint19_linear_403_6333" x1="22.9543" y1="57.7619" x2="42.0817" y2="7.40862" gradientUnits="userSpaceOnUse">
<stop stop-color="#E65125"/>
<stop offset="1" stop-color="#CB2F27"/>
</linearGradient>
<linearGradient id="paint20_linear_403_6333" x1="-0.646936" y1="27.9071" x2="49.1947" y2="27.9071" gradientUnits="userSpaceOnUse">
<stop stop-color="#3DA9DF"/>
<stop offset="1" stop-color="#2281C5"/>
</linearGradient>
<linearGradient id="paint21_linear_403_6333" x1="24.9687" y1="58.527" x2="44.0961" y2="8.1737" gradientUnits="userSpaceOnUse">
<stop stop-color="#E65125"/>
<stop offset="1" stop-color="#CB2F27"/>
</linearGradient>
<linearGradient id="paint22_linear_403_6333" x1="-0.646688" y1="5.97679" x2="49.195" y2="5.97679" gradientUnits="userSpaceOnUse">
<stop stop-color="#3DA9DF"/>
<stop offset="1" stop-color="#2281C5"/>
</linearGradient>
<linearGradient id="paint23_linear_403_6333" x1="13.3873" y1="54.1277" x2="32.5147" y2="3.77441" gradientUnits="userSpaceOnUse">
<stop stop-color="#E65125"/>
<stop offset="1" stop-color="#CB2F27"/>
</linearGradient>
<linearGradient id="paint24_linear_403_6333" x1="-0.646767" y1="23.9197" x2="49.1948" y2="23.9197" gradientUnits="userSpaceOnUse">
<stop stop-color="#3DA9DF"/>
<stop offset="1" stop-color="#2281C5"/>
</linearGradient>
<linearGradient id="paint25_linear_403_6333" x1="20.9401" y1="56.9967" x2="40.0673" y2="6.6436" gradientUnits="userSpaceOnUse">
<stop stop-color="#E65125"/>
<stop offset="1" stop-color="#CB2F27"/>
</linearGradient>
<linearGradient id="paint26_linear_403_6333" x1="-0.646956" y1="27.9071" x2="49.1946" y2="27.9071" gradientUnits="userSpaceOnUse">
<stop stop-color="#3DA9DF"/>
<stop offset="1" stop-color="#2281C5"/>
</linearGradient>
<linearGradient id="paint27_linear_403_6333" x1="19.9334" y1="56.6143" x2="39.0608" y2="6.26097" gradientUnits="userSpaceOnUse">
<stop stop-color="#E65125"/>
<stop offset="1" stop-color="#CB2F27"/>
</linearGradient>
<linearGradient id="paint28_linear_403_6333" x1="-0.646579" y1="27.4087" x2="49.1951" y2="27.4087" gradientUnits="userSpaceOnUse">
<stop stop-color="#3DA9DF"/>
<stop offset="1" stop-color="#2281C5"/>
</linearGradient>
<linearGradient id="paint29_linear_403_6333" x1="22.9542" y1="57.762" x2="42.0815" y2="7.40847" gradientUnits="userSpaceOnUse">
<stop stop-color="#E65125"/>
<stop offset="1" stop-color="#CB2F27"/>
</linearGradient>
<linearGradient id="paint30_linear_403_6333" x1="-0.647286" y1="27.4087" x2="49.1949" y2="27.4087" gradientUnits="userSpaceOnUse">
<stop stop-color="#3DA9DF"/>
<stop offset="1" stop-color="#2281C5"/>
</linearGradient>
<linearGradient id="paint31_linear_403_6333" x1="18.4225" y1="56.0406" x2="37.55" y2="5.68711" gradientUnits="userSpaceOnUse">
<stop stop-color="#E65125"/>
<stop offset="1" stop-color="#CB2F27"/>
</linearGradient>
<linearGradient id="paint32_linear_403_6333" x1="-0.646949" y1="26.9102" x2="49.1947" y2="26.9102" gradientUnits="userSpaceOnUse">
<stop stop-color="#3DA9DF"/>
<stop offset="1" stop-color="#2281C5"/>
</linearGradient>
<linearGradient id="paint33_linear_403_6333" x1="21.9472" y1="57.3792" x2="41.0743" y2="7.02617" gradientUnits="userSpaceOnUse">
<stop stop-color="#E65125"/>
<stop offset="1" stop-color="#CB2F27"/>
</linearGradient>
<linearGradient id="paint34_linear_403_6333" x1="-0.646941" y1="27.9071" x2="49.1946" y2="27.9071" gradientUnits="userSpaceOnUse">
<stop stop-color="#3DA9DF"/>
<stop offset="1" stop-color="#2281C5"/>
</linearGradient>
<linearGradient id="paint35_linear_403_6333" x1="11.3731" y1="53.3628" x2="30.5007" y2="3.0093" gradientUnits="userSpaceOnUse">
<stop stop-color="#E65125"/>
<stop offset="1" stop-color="#CB2F27"/>
</linearGradient>
<linearGradient id="paint36_linear_403_6333" x1="-0.64683" y1="15.9451" x2="49.1948" y2="15.9451" gradientUnits="userSpaceOnUse">
<stop stop-color="#3DA9DF"/>
<stop offset="1" stop-color="#2281C5"/>
</linearGradient>
<linearGradient id="paint37_linear_403_6333" x1="10.3663" y1="52.9801" x2="29.4937" y2="2.62675" gradientUnits="userSpaceOnUse">
<stop stop-color="#E65125"/>
<stop offset="1" stop-color="#CB2F27"/>
</linearGradient>
<linearGradient id="paint38_linear_403_6333" x1="-0.646585" y1="15.4467" x2="49.1951" y2="15.4467" gradientUnits="userSpaceOnUse">
<stop stop-color="#3DA9DF"/>
<stop offset="1" stop-color="#2281C5"/>
</linearGradient>
<linearGradient id="paint39_linear_403_6333" x1="8.35192" y1="52.2149" x2="27.4793" y2="1.86167" gradientUnits="userSpaceOnUse">
<stop stop-color="#E65125"/>
<stop offset="1" stop-color="#CB2F27"/>
</linearGradient>
<linearGradient id="paint40_linear_403_6333" x1="-0.64683" y1="14.9483" x2="49.1948" y2="14.9483" gradientUnits="userSpaceOnUse">
<stop stop-color="#3DA9DF"/>
<stop offset="1" stop-color="#2281C5"/>
</linearGradient>
<linearGradient id="paint41_linear_403_6333" x1="9.35909" y1="52.5978" x2="28.4867" y2="2.24422" gradientUnits="userSpaceOnUse">
<stop stop-color="#E65125"/>
<stop offset="1" stop-color="#CB2F27"/>
</linearGradient>
<linearGradient id="paint42_linear_403_6333" x1="-0.646716" y1="14.9483" x2="49.1948" y2="14.9483" gradientUnits="userSpaceOnUse">
<stop stop-color="#3DA9DF"/>
<stop offset="1" stop-color="#2281C5"/>
</linearGradient>
<linearGradient id="paint43_linear_403_6333" x1="7.34491" y1="51.8324" x2="26.4723" y2="1.47914" gradientUnits="userSpaceOnUse">
<stop stop-color="#E65125"/>
<stop offset="1" stop-color="#CB2F27"/>
</linearGradient>
<linearGradient id="paint44_linear_403_6333" x1="-0.646751" y1="14.4499" x2="49.1948" y2="14.4499" gradientUnits="userSpaceOnUse">
<stop stop-color="#3DA9DF"/>
<stop offset="1" stop-color="#2281C5"/>
</linearGradient>
<linearGradient id="paint45_linear_403_6333" x1="7.84835" y1="52.0237" x2="26.9758" y2="1.67038" gradientUnits="userSpaceOnUse">
<stop stop-color="#E65125"/>
<stop offset="1" stop-color="#CB2F27"/>
</linearGradient>
<linearGradient id="paint46_linear_403_6333" x1="-0.646866" y1="16.9419" x2="49.1947" y2="16.9419" gradientUnits="userSpaceOnUse">
<stop stop-color="#3DA9DF"/>
<stop offset="1" stop-color="#2281C5"/>
</linearGradient>
<linearGradient id="paint47_linear_403_6333" x1="23.4581" y1="57.9532" x2="42.5855" y2="7.5999" gradientUnits="userSpaceOnUse">
<stop stop-color="#E65125"/>
<stop offset="1" stop-color="#CB2F27"/>
</linearGradient>
<linearGradient id="paint48_linear_403_6333" x1="-0.646639" y1="8.96726" x2="49.1949" y2="8.96726" gradientUnits="userSpaceOnUse">
<stop stop-color="#3DA9DF"/>
<stop offset="1" stop-color="#2281C5"/>
</linearGradient>
<linearGradient id="paint49_linear_403_6333" x1="13.3873" y1="54.1278" x2="32.5148" y2="3.77439" gradientUnits="userSpaceOnUse">
<stop stop-color="#E65125"/>
<stop offset="1" stop-color="#CB2F27"/>
</linearGradient>
<linearGradient id="paint50_linear_403_6333" x1="-0.64673" y1="16.9419" x2="49.1949" y2="16.9419" gradientUnits="userSpaceOnUse">
<stop stop-color="#3DA9DF"/>
<stop offset="1" stop-color="#2281C5"/>
</linearGradient>
<linearGradient id="paint51_linear_403_6333" x1="14.898" y1="54.7017" x2="34.0255" y2="4.34824" gradientUnits="userSpaceOnUse">
<stop stop-color="#E65125"/>
<stop offset="1" stop-color="#CB2F27"/>
</linearGradient>
<linearGradient id="paint52_linear_403_6333" x1="-0.646701" y1="17.4403" x2="49.1949" y2="17.4403" gradientUnits="userSpaceOnUse">
<stop stop-color="#3DA9DF"/>
<stop offset="1" stop-color="#2281C5"/>
</linearGradient>
<linearGradient id="paint53_linear_403_6333" x1="10.3662" y1="52.9801" x2="29.4936" y2="2.62678" gradientUnits="userSpaceOnUse">
<stop stop-color="#E65125"/>
<stop offset="1" stop-color="#CB2F27"/>
</linearGradient>
<linearGradient id="paint54_linear_403_6333" x1="-0.646681" y1="20.4308" x2="49.1948" y2="20.4308" gradientUnits="userSpaceOnUse">
<stop stop-color="#3DA9DF"/>
<stop offset="1" stop-color="#2281C5"/>
</linearGradient>
<linearGradient id="paint55_linear_403_6333" x1="17.9192" y1="55.8491" x2="37.0464" y2="5.49584" gradientUnits="userSpaceOnUse">
<stop stop-color="#E65125"/>
<stop offset="1" stop-color="#CB2F27"/>
</linearGradient>
<linearGradient id="paint56_linear_403_6333" x1="-0.646766" y1="20.4308" x2="49.195" y2="20.4308" gradientUnits="userSpaceOnUse">
<stop stop-color="#3DA9DF"/>
<stop offset="1" stop-color="#2281C5"/>
</linearGradient>
<linearGradient id="paint57_linear_403_6333" x1="8.85559" y1="52.4062" x2="27.983" y2="2.05292" gradientUnits="userSpaceOnUse">
<stop stop-color="#E65125"/>
<stop offset="1" stop-color="#CB2F27"/>
</linearGradient>
<linearGradient id="paint58_linear_403_6333" x1="-0.646686" y1="17.9387" x2="49.1949" y2="17.9387" gradientUnits="userSpaceOnUse">
<stop stop-color="#3DA9DF"/>
<stop offset="1" stop-color="#2281C5"/>
</linearGradient>
<linearGradient id="paint59_linear_403_6333" x1="9.35884" y1="52.5975" x2="28.4863" y2="2.24421" gradientUnits="userSpaceOnUse">
<stop stop-color="#E65125"/>
<stop offset="1" stop-color="#CB2F27"/>
</linearGradient>
<linearGradient id="paint60_linear_403_6333" x1="-0.646972" y1="19.434" x2="49.1947" y2="19.434" gradientUnits="userSpaceOnUse">
<stop stop-color="#3DA9DF"/>
<stop offset="1" stop-color="#2281C5"/>
</linearGradient>
<linearGradient id="paint61_linear_403_6333" x1="22.5604" y1="18.8626" x2="33.8131" y2="18.8626" gradientUnits="userSpaceOnUse">
<stop stop-color="#010101"/>
<stop offset="0.08" stop-color="#0D0D0D"/>
<stop offset="0.33" stop-color="#2D2D2C"/>
<stop offset="0.58" stop-color="#444443"/>
<stop offset="0.8" stop-color="#525251"/>
<stop offset="1" stop-color="#575756"/>
</linearGradient>
<linearGradient id="paint62_linear_403_6333" x1="6.84141" y1="51.6411" x2="25.9688" y2="1.28786" gradientUnits="userSpaceOnUse">
<stop stop-color="#E65125"/>
<stop offset="1" stop-color="#CB2F27"/>
</linearGradient>
<linearGradient id="paint63_linear_403_6333" x1="4485.53" y1="14.8001" x2="4499.38" y2="14.8001" gradientUnits="userSpaceOnUse">
<stop stop-color="#010101"/>
<stop offset="0.08" stop-color="#0D0D0D"/>
<stop offset="0.33" stop-color="#2D2D2C"/>
<stop offset="0.58" stop-color="#444443"/>
<stop offset="0.8" stop-color="#525251"/>
<stop offset="1" stop-color="#575756"/>
</linearGradient>
<linearGradient id="paint64_linear_403_6333" x1="15.9049" y1="55.0841" x2="35.0323" y2="4.73078" gradientUnits="userSpaceOnUse">
<stop stop-color="#E65125"/>
<stop offset="1" stop-color="#CB2F27"/>
</linearGradient>
<linearGradient id="paint65_linear_403_6333" x1="4485.54" y1="18.4005" x2="4499.39" y2="18.4005" gradientUnits="userSpaceOnUse">
<stop stop-color="#010101"/>
<stop offset="0.08" stop-color="#0D0D0D"/>
<stop offset="0.33" stop-color="#2D2D2C"/>
<stop offset="0.58" stop-color="#444443"/>
<stop offset="0.8" stop-color="#525251"/>
<stop offset="1" stop-color="#575756"/>
</linearGradient>
<linearGradient id="paint66_linear_403_6333" x1="8.85543" y1="52.4062" x2="27.9828" y2="2.05296" gradientUnits="userSpaceOnUse">
<stop stop-color="#E65125"/>
<stop offset="1" stop-color="#CB2F27"/>
</linearGradient>
<linearGradient id="paint67_linear_403_6333" x1="4485.54" y1="15.354" x2="4499.38" y2="15.354" gradientUnits="userSpaceOnUse">
<stop stop-color="#010101"/>
<stop offset="0.08" stop-color="#0D0D0D"/>
<stop offset="0.33" stop-color="#2D2D2C"/>
<stop offset="0.58" stop-color="#444443"/>
<stop offset="0.8" stop-color="#525251"/>
<stop offset="1" stop-color="#575756"/>
</linearGradient>
<linearGradient id="paint68_linear_403_6333" x1="7.84856" y1="52.0242" x2="26.9764" y2="1.67042" gradientUnits="userSpaceOnUse">
<stop stop-color="#E65125"/>
<stop offset="1" stop-color="#CB2F27"/>
</linearGradient>
<linearGradient id="paint69_linear_403_6333" x1="4485.53" y1="15.077" x2="4499.38" y2="15.077" gradientUnits="userSpaceOnUse">
<stop stop-color="#010101"/>
<stop offset="0.08" stop-color="#0D0D0D"/>
<stop offset="0.33" stop-color="#2D2D2C"/>
<stop offset="0.58" stop-color="#444443"/>
<stop offset="0.8" stop-color="#525251"/>
<stop offset="1" stop-color="#575756"/>
</linearGradient>
<linearGradient id="paint70_linear_403_6333" x1="23.4579" y1="57.952" x2="42.5839" y2="7.60016" gradientUnits="userSpaceOnUse">
<stop stop-color="#E65125"/>
<stop offset="1" stop-color="#CB2F27"/>
</linearGradient>
<linearGradient id="paint71_linear_403_6333" x1="4485.56" y1="28.6476" x2="4499.41" y2="28.6476" gradientUnits="userSpaceOnUse">
<stop stop-color="#010101"/>
<stop offset="0.08" stop-color="#0D0D0D"/>
<stop offset="0.33" stop-color="#2D2D2C"/>
<stop offset="0.58" stop-color="#444443"/>
<stop offset="0.8" stop-color="#525251"/>
<stop offset="1" stop-color="#575756"/>
</linearGradient>
<linearGradient id="paint72_linear_403_6333" x1="16.9119" y1="55.4665" x2="36.0392" y2="5.11338" gradientUnits="userSpaceOnUse">
<stop stop-color="#E65125"/>
<stop offset="1" stop-color="#CB2F27"/>
</linearGradient>
<linearGradient id="paint73_linear_403_6333" x1="4485.53" y1="26.709" x2="4499.38" y2="26.709" gradientUnits="userSpaceOnUse">
<stop stop-color="#010101"/>
<stop offset="0.08" stop-color="#0D0D0D"/>
<stop offset="0.33" stop-color="#2D2D2C"/>
<stop offset="0.58" stop-color="#444443"/>
<stop offset="0.8" stop-color="#525251"/>
<stop offset="1" stop-color="#575756"/>
</linearGradient>
<linearGradient id="paint74_linear_403_6333" x1="14.3941" y1="54.5103" x2="33.5216" y2="4.15696" gradientUnits="userSpaceOnUse">
<stop stop-color="#E65125"/>
<stop offset="1" stop-color="#CB2F27"/>
</linearGradient>
<linearGradient id="paint75_linear_403_6333" x1="4485.54" y1="17.5695" x2="34.5176" y2="17.5695" gradientUnits="userSpaceOnUse">
<stop stop-color="#010101"/>
<stop offset="0.08" stop-color="#0D0D0D"/>
<stop offset="0.33" stop-color="#2D2D2C"/>
<stop offset="0.58" stop-color="#444443"/>
<stop offset="0.8" stop-color="#525251"/>
<stop offset="1" stop-color="#575756"/>
</linearGradient>
<linearGradient id="paint76_linear_403_6333" x1="21.444" y1="57.1883" x2="40.5716" y2="6.83471" gradientUnits="userSpaceOnUse">
<stop stop-color="#E65125"/>
<stop offset="1" stop-color="#CB2F27"/>
</linearGradient>
<linearGradient id="paint77_linear_403_6333" x1="20.6705" y1="28.3707" x2="34.5181" y2="28.3707" gradientUnits="userSpaceOnUse">
<stop stop-color="#010101"/>
<stop offset="0.08" stop-color="#0D0D0D"/>
<stop offset="0.33" stop-color="#2D2D2C"/>
<stop offset="0.58" stop-color="#444443"/>
<stop offset="0.8" stop-color="#525251"/>
<stop offset="1" stop-color="#575756"/>
</linearGradient>
<linearGradient id="paint78_linear_403_6333" x1="18.9261" y1="56.2317" x2="38.0535" y2="5.87843" gradientUnits="userSpaceOnUse">
<stop stop-color="#E65125"/>
<stop offset="1" stop-color="#CB2F27"/>
</linearGradient>
<linearGradient id="paint79_linear_403_6333" x1="4485.54" y1="27.6783" x2="4499.39" y2="27.6783" gradientUnits="userSpaceOnUse">
<stop stop-color="#010101"/>
<stop offset="0.08" stop-color="#0D0D0D"/>
<stop offset="0.33" stop-color="#2D2D2C"/>
<stop offset="0.58" stop-color="#444443"/>
<stop offset="0.8" stop-color="#525251"/>
<stop offset="1" stop-color="#575756"/>
</linearGradient>
<linearGradient id="paint80_linear_403_6333" x1="20.4368" y1="56.8057" x2="39.5643" y2="6.45221" gradientUnits="userSpaceOnUse">
<stop stop-color="#E65125"/>
<stop offset="1" stop-color="#CB2F27"/>
</linearGradient>
<linearGradient id="paint81_linear_403_6333" x1="4485.54" y1="27.9553" x2="4499.39" y2="27.9553" gradientUnits="userSpaceOnUse">
<stop stop-color="#010101"/>
<stop offset="0.08" stop-color="#0D0D0D"/>
<stop offset="0.33" stop-color="#2D2D2C"/>
<stop offset="0.58" stop-color="#444443"/>
<stop offset="0.8" stop-color="#525251"/>
<stop offset="1" stop-color="#575756"/>
</linearGradient>
<linearGradient id="paint82_linear_403_6333" x1="9.86245" y1="52.7885" x2="28.9896" y2="2.43553" gradientUnits="userSpaceOnUse">
<stop stop-color="#E65125"/>
<stop offset="1" stop-color="#CB2F27"/>
</linearGradient>
<linearGradient id="paint83_linear_403_6333" x1="4485.53" y1="15.7694" x2="4499.38" y2="15.7694" gradientUnits="userSpaceOnUse">
<stop stop-color="#010101"/>
<stop offset="0.08" stop-color="#0D0D0D"/>
<stop offset="0.33" stop-color="#2D2D2C"/>
<stop offset="0.58" stop-color="#444443"/>
<stop offset="0.8" stop-color="#525251"/>
<stop offset="1" stop-color="#575756"/>
</linearGradient>
<linearGradient id="paint84_linear_403_6333" x1="-0.646842" y1="24.9166" x2="49.1947" y2="24.9166" gradientUnits="userSpaceOnUse">
<stop stop-color="#3DA9DF"/>
<stop offset="1" stop-color="#2281C5"/>
</linearGradient>
<linearGradient id="paint85_linear_403_6333" x1="4485.53" y1="25.6012" x2="4499.38" y2="25.6012" gradientUnits="userSpaceOnUse">
<stop stop-color="#010101"/>
<stop offset="0.08" stop-color="#0D0D0D"/>
<stop offset="0.33" stop-color="#2D2D2C"/>
<stop offset="0.58" stop-color="#444443"/>
<stop offset="0.8" stop-color="#525251"/>
<stop offset="1" stop-color="#575756"/>
</linearGradient>
<linearGradient id="paint86_linear_403_6333" x1="-0.64687" y1="18.9356" x2="49.1947" y2="18.9356" gradientUnits="userSpaceOnUse">
<stop stop-color="#3DA9DF"/>
<stop offset="1" stop-color="#2281C5"/>
</linearGradient>
<linearGradient id="paint87_linear_403_6333" x1="4485.53" y1="19.6467" x2="4499.38" y2="19.6467" gradientUnits="userSpaceOnUse">
<stop stop-color="#010101"/>
<stop offset="0.08" stop-color="#0D0D0D"/>
<stop offset="0.33" stop-color="#2D2D2C"/>
<stop offset="0.58" stop-color="#444443"/>
<stop offset="0.8" stop-color="#525251"/>
<stop offset="1" stop-color="#575756"/>
</linearGradient>
<linearGradient id="paint88_linear_403_6333" x1="-0.646566" y1="18.9356" x2="49.1946" y2="18.9356" gradientUnits="userSpaceOnUse">
<stop stop-color="#3DA9DF"/>
<stop offset="1" stop-color="#2281C5"/>
</linearGradient>
<linearGradient id="paint89_linear_403_6333" x1="4485.5" y1="19.2313" x2="4499.34" y2="19.2313" gradientUnits="userSpaceOnUse">
<stop stop-color="#010101"/>
<stop offset="0.08" stop-color="#0D0D0D"/>
<stop offset="0.33" stop-color="#2D2D2C"/>
<stop offset="0.58" stop-color="#444443"/>
<stop offset="0.8" stop-color="#525251"/>
<stop offset="1" stop-color="#575756"/>
</linearGradient>
<linearGradient id="paint90_linear_403_6333" x1="-0.646804" y1="19.9324" x2="49.1948" y2="19.9324" gradientUnits="userSpaceOnUse">
<stop stop-color="#3DA9DF"/>
<stop offset="1" stop-color="#2281C5"/>
</linearGradient>
<linearGradient id="paint91_linear_403_6333" x1="4485.54" y1="20.4776" x2="4499.39" y2="20.4776" gradientUnits="userSpaceOnUse">
<stop stop-color="#010101"/>
<stop offset="0.08" stop-color="#0D0D0D"/>
<stop offset="0.33" stop-color="#2D2D2C"/>
<stop offset="0.58" stop-color="#444443"/>
<stop offset="0.8" stop-color="#525251"/>
<stop offset="1" stop-color="#575756"/>
</linearGradient>
<linearGradient id="paint92_linear_403_6333" x1="-0.64689" y1="21.9261" x2="49.195" y2="21.9261" gradientUnits="userSpaceOnUse">
<stop stop-color="#3DA9DF"/>
<stop offset="1" stop-color="#2281C5"/>
</linearGradient>
<linearGradient id="paint93_linear_403_6333" x1="20.6703" y1="22.1393" x2="34.518" y2="22.1393" gradientUnits="userSpaceOnUse">
<stop stop-color="#010101"/>
<stop offset="0.08" stop-color="#0D0D0D"/>
<stop offset="0.33" stop-color="#2D2D2C"/>
<stop offset="0.58" stop-color="#444443"/>
<stop offset="0.8" stop-color="#525251"/>
<stop offset="1" stop-color="#575756"/>
</linearGradient>
<linearGradient id="paint94_linear_403_6333" x1="-0.646952" y1="23.9198" x2="49.1948" y2="23.9198" gradientUnits="userSpaceOnUse">
<stop stop-color="#3DA9DF"/>
<stop offset="1" stop-color="#2281C5"/>
</linearGradient>
<linearGradient id="paint95_linear_403_6333" x1="4485.56" y1="24.3549" x2="4499.4" y2="24.3549" gradientUnits="userSpaceOnUse">
<stop stop-color="#010101"/>
<stop offset="0.08" stop-color="#0D0D0D"/>
<stop offset="0.33" stop-color="#2D2D2C"/>
<stop offset="0.58" stop-color="#444443"/>
<stop offset="0.8" stop-color="#525251"/>
<stop offset="1" stop-color="#575756"/>
</linearGradient>
<linearGradient id="paint96_linear_403_6333" x1="-0.646781" y1="27.9071" x2="49.1951" y2="27.9071" gradientUnits="userSpaceOnUse">
<stop stop-color="#3DA9DF"/>
<stop offset="1" stop-color="#2281C5"/>
</linearGradient>
<linearGradient id="paint97_linear_403_6333" x1="4485.56" y1="28.5092" x2="4499.41" y2="28.5092" gradientUnits="userSpaceOnUse">
<stop stop-color="#010101"/>
<stop offset="0.08" stop-color="#0D0D0D"/>
<stop offset="0.33" stop-color="#2D2D2C"/>
<stop offset="0.58" stop-color="#444443"/>
<stop offset="0.8" stop-color="#525251"/>
<stop offset="1" stop-color="#575756"/>
</linearGradient>
<linearGradient id="paint98_linear_403_6333" x1="-0.647017" y1="15.4467" x2="49.1945" y2="15.4467" gradientUnits="userSpaceOnUse">
<stop stop-color="#3DA9DF"/>
<stop offset="1" stop-color="#2281C5"/>
</linearGradient>
<linearGradient id="paint99_linear_403_6333" x1="4485.53" y1="15.9079" x2="4499.38" y2="15.9079" gradientUnits="userSpaceOnUse">
<stop stop-color="#010101"/>
<stop offset="0.08" stop-color="#0D0D0D"/>
<stop offset="0.33" stop-color="#2D2D2C"/>
<stop offset="0.58" stop-color="#444443"/>
<stop offset="0.8" stop-color="#525251"/>
<stop offset="1" stop-color="#575756"/>
</linearGradient>
<linearGradient id="paint100_linear_403_6333" x1="-0.646467" y1="16.4435" x2="49.1945" y2="16.4435" gradientUnits="userSpaceOnUse">
<stop stop-color="#3DA9DF"/>
<stop offset="1" stop-color="#2281C5"/>
</linearGradient>
<linearGradient id="paint101_linear_403_6333" x1="20.6704" y1="17.0157" x2="34.5178" y2="17.0157" gradientUnits="userSpaceOnUse">
<stop stop-color="#010101"/>
<stop offset="0.08" stop-color="#0D0D0D"/>
<stop offset="0.33" stop-color="#2D2D2C"/>
<stop offset="0.58" stop-color="#444443"/>
<stop offset="0.8" stop-color="#525251"/>
<stop offset="1" stop-color="#575756"/>
</linearGradient>
<linearGradient id="paint102_linear_403_6333" x1="-0.646628" y1="20.9292" x2="49.1948" y2="20.9292" gradientUnits="userSpaceOnUse">
<stop stop-color="#3DA9DF"/>
<stop offset="1" stop-color="#2281C5"/>
</linearGradient>
<linearGradient id="paint103_linear_403_6333" x1="20.6704" y1="21.17" x2="34.518" y2="21.17" gradientUnits="userSpaceOnUse">
<stop stop-color="#010101"/>
<stop offset="0.08" stop-color="#0D0D0D"/>
<stop offset="0.33" stop-color="#2D2D2C"/>
<stop offset="0.58" stop-color="#444443"/>
<stop offset="0.8" stop-color="#525251"/>
<stop offset="1" stop-color="#575756"/>
</linearGradient>
<linearGradient id="paint104_linear_403_6333" x1="-0.64642" y1="26.9102" x2="49.1942" y2="26.9102" gradientUnits="userSpaceOnUse">
<stop stop-color="#3DA9DF"/>
<stop offset="1" stop-color="#2281C5"/>
</linearGradient>
<linearGradient id="paint105_linear_403_6333" x1="4485.45" y1="27.5398" x2="4499.3" y2="27.5398" gradientUnits="userSpaceOnUse">
<stop stop-color="#010101"/>
<stop offset="0.08" stop-color="#0D0D0D"/>
<stop offset="0.33" stop-color="#2D2D2C"/>
<stop offset="0.58" stop-color="#444443"/>
<stop offset="0.8" stop-color="#525251"/>
<stop offset="1" stop-color="#575756"/>
</linearGradient>
<linearGradient id="paint106_linear_403_6333" x1="-0.646859" y1="25.9134" x2="49.1945" y2="25.9134" gradientUnits="userSpaceOnUse">
<stop stop-color="#3DA9DF"/>
<stop offset="1" stop-color="#2281C5"/>
</linearGradient>
<linearGradient id="paint107_linear_403_6333" x1="4485.52" y1="26.5705" x2="4499.36" y2="26.5705" gradientUnits="userSpaceOnUse">
<stop stop-color="#010101"/>
<stop offset="0.08" stop-color="#0D0D0D"/>
<stop offset="0.33" stop-color="#2D2D2C"/>
<stop offset="0.58" stop-color="#444443"/>
<stop offset="0.8" stop-color="#525251"/>
<stop offset="1" stop-color="#575756"/>
</linearGradient>
<linearGradient id="paint108_linear_403_6333" x1="-0.646581" y1="14.4498" x2="49.1942" y2="14.4498" gradientUnits="userSpaceOnUse">
<stop stop-color="#3DA9DF"/>
<stop offset="1" stop-color="#2281C5"/>
</linearGradient>
<linearGradient id="paint109_linear_403_6333" x1="4485.47" y1="14.9386" x2="4499.32" y2="14.9386" gradientUnits="userSpaceOnUse">
<stop stop-color="#010101"/>
<stop offset="0.08" stop-color="#0D0D0D"/>
<stop offset="0.33" stop-color="#2D2D2C"/>
<stop offset="0.58" stop-color="#444443"/>
<stop offset="0.8" stop-color="#525251"/>
<stop offset="1" stop-color="#575756"/>
</linearGradient>
<linearGradient id="paint110_linear_403_6333" x1="14.8978" y1="54.7015" x2="34.0252" y2="4.34822" gradientUnits="userSpaceOnUse">
<stop stop-color="#E65125"/>
<stop offset="1" stop-color="#CB2F27"/>
</linearGradient>
<linearGradient id="paint111_linear_403_6333" x1="-0.646912" y1="21.4277" x2="49.1947" y2="21.4277" gradientUnits="userSpaceOnUse">
<stop stop-color="#3DA9DF"/>
<stop offset="1" stop-color="#2281C5"/>
</linearGradient>
<linearGradient id="paint112_linear_403_6333" x1="20.6702" y1="21.7239" x2="34.5178" y2="21.7239" gradientUnits="userSpaceOnUse">
<stop stop-color="#010101"/>
<stop offset="0.08" stop-color="#0D0D0D"/>
<stop offset="0.33" stop-color="#2D2D2C"/>
<stop offset="0.58" stop-color="#444443"/>
<stop offset="0.8" stop-color="#525251"/>
<stop offset="1" stop-color="#575756"/>
</linearGradient>
</defs>
</svg>
