<?xml version="1.0" encoding="UTF-8"?> <!-- Generator: Adobe Illustrator 25.2.0, SVG Export Plug-In . SVG Version: 6.00 Build 0) --> <svg xmlns="http://www.w3.org/2000/svg" xmlns:xlink="http://www.w3.org/1999/xlink" version="1.1" x="0px" y="0px" viewBox="0 0 566.9 170.1" style="enable-background:new 0 0 566.9 170.1;" xml:space="preserve"> <style type="text/css"> .st0{display:none;} .st1{display:inline;fill:#FFFFFF;} .st2{fill:#414042;} .st3{fill:#F29420;} .st4{fill:#96BE3D;} .st5{fill:#1690D0;} .st6{fill:#E21B52;} .st7{fill:#FFFFFF;} </style> <g id="Layer_3_copy"> </g> <g id="Layer_2" class="st0"> <path class="st1" d="M89.5,34.4c0,0.7-0.6,1.3-1.3,1.3c-0.7,0-1.3-0.6-1.3-1.3c0-0.7,0.6-1.3,1.3-1.3 C88.9,33.1,89.5,33.7,89.5,34.4z"></path> <circle class="st1" cx="83.6" cy="36.7" r="1.2"></circle> <circle class="st1" cx="80.6" cy="40.7" r="0.8"></circle> </g> <g id="Layer_8"> <g> <path class="st2" d="M177.7,119.1v-20h9.9v1.7h-8.1v6.3h8.1v1.7h-8.1v8.6h8.1v1.7H177.7z"></path> <path class="st2" d="M193.1,119.1v-20h3.1c2.8,0,4.8,0.1,5.9,0.4c1.2,0.3,2.2,0.7,3,1.4c1.1,0.9,2,2,2.5,3.4 c0.6,1.4,0.9,3,0.9,4.8c0,1.8-0.3,3.4-0.9,4.8c-0.6,1.4-1.4,2.5-2.5,3.4c-0.9,0.7-1.9,1.1-3,1.4c-1.1,0.3-2.9,0.4-5.4,0.4h-0.6 H193.1z M194.9,117.5h2.6c2.1,0,3.5-0.1,4.4-0.3c0.9-0.2,1.6-0.6,2.2-1.2c0.8-0.8,1.5-1.8,1.9-2.9c0.4-1.2,0.6-2.5,0.6-4 c0-1.5-0.2-2.9-0.6-4c-0.4-1.2-1.1-2.1-1.9-2.9c-0.6-0.6-1.4-1-2.3-1.2c-0.9-0.2-2.5-0.4-4.8-0.4h-0.3h-1.6V117.5z"></path> <path class="st2" d="M213.6,99.1h1.8v13.1c0,2,0.5,3.4,1.4,4.4c0.9,1,2.3,1.4,4.1,1.4c1.8,0,3.2-0.5,4.1-1.4 c0.9-1,1.4-2.4,1.4-4.4V99.1h1.8v12.5c0,2.7-0.6,4.7-1.8,6.1c-1.2,1.3-3,2-5.5,2c-2.5,0-4.3-0.7-5.5-2c-1.2-1.3-1.8-3.4-1.8-6.1 V99.1z"></path> <path class="st2" d="M250.2,102.7c-1-0.9-2-1.5-3-1.9c-1-0.4-2.1-0.6-3.3-0.6c-2.6,0-4.7,0.8-6.3,2.5c-1.6,1.6-2.4,3.8-2.4,6.4 c0,1.3,0.2,2.5,0.6,3.6c0.4,1.1,1,2,1.8,2.8c0.8,0.8,1.7,1.4,2.8,1.8c1,0.4,2.1,0.6,3.3,0.6c1.1,0,2.3-0.2,3.4-0.6 c1.1-0.4,2.1-1,3.1-1.7v2.1c-1,0.6-2,1.1-3.1,1.4c-1.1,0.3-2.2,0.5-3.3,0.5c-1.4,0-2.8-0.3-4.2-0.8c-1.3-0.5-2.5-1.2-3.4-2.2 c-1-1-1.7-2.1-2.2-3.4c-0.5-1.3-0.8-2.7-0.8-4.2c0-1.5,0.3-2.9,0.8-4.2c0.5-1.3,1.3-2.4,2.2-3.3c0.9-0.9,2.1-1.6,3.4-2.2 c1.3-0.5,2.7-0.8,4.1-0.8c1.3,0,2.5,0.2,3.5,0.5c1.1,0.4,2.1,0.9,3,1.6L250.2,102.7z"></path> <path class="st2" d="M252.4,119.1l8.8-20.8l8.4,20.8h-2l-2.6-6.8h-8.2l-2.7,6.8H252.4z M257.5,110.7h7l-3.4-8.7L257.5,110.7z"></path> <path class="st2" d="M274.9,119.1v-18.3h-5.5v-1.7h12.9v1.7h-5.5v18.3H274.9z"></path> <path class="st2" d="M286.3,119.1v-20h1.8v20H286.3z"></path> <path class="st2" d="M294.2,119.1v-20h9.9v1.7H296v6.3h8.1v1.7H296v8.6h8.1v1.7H294.2z"></path> <path class="st2" d="M314.7,119.9l-7.8-20.8h2.1l5.8,16.3l6.1-16.3h2L314.7,119.9z"></path> <path class="st2" d="M326,119.1v-20h9.9v1.7h-8.1v6.3h8.1v1.7h-8.1v8.6h8.1v1.7H326z"></path> <path class="st2" d="M350.4,99.1h1.8v13.1c0,2,0.5,3.4,1.4,4.4c0.9,1,2.3,1.4,4.1,1.4c1.8,0,3.2-0.5,4.1-1.4 c0.9-1,1.4-2.4,1.4-4.4V99.1h1.8v12.5c0,2.7-0.6,4.7-1.8,6.1c-1.2,1.3-3,2-5.5,2c-2.5,0-4.3-0.7-5.5-2c-1.2-1.3-1.8-3.4-1.8-6.1 V99.1z"></path> <path class="st2" d="M370.9,119.1v-20h1.8v20H370.9z"></path> <path class="st2" d="M382.3,119.1v-18.3h-5.5v-1.7h12.9v1.7h-5.5v18.3H382.3z"></path> <path class="st2" d="M410.1,104.1c-0.8-1.3-1.8-2.2-3-2.9c-1.2-0.6-2.5-1-4-1c-2.5,0-4.5,0.8-6.1,2.5c-1.6,1.7-2.3,3.9-2.3,6.5 c0,1.2,0.2,2.3,0.6,3.4c0.4,1.1,1,2,1.8,2.8c0.8,0.8,1.7,1.4,2.7,1.8c1,0.4,2.1,0.6,3.3,0.6c2.2,0,4.1-0.7,5.5-2 c1.4-1.3,2.1-3,2.2-5.2h-6.9v-1.6h8.9v0.2c0,3.2-0.9,5.7-2.6,7.5c-1.7,1.8-4.1,2.7-7.2,2.7c-3,0-5.5-1-7.4-2.9 c-1.9-1.9-2.8-4.5-2.8-7.6c0-1.4,0.2-2.8,0.7-4.1c0.5-1.3,1.2-2.4,2.1-3.3c1-1,2.1-1.8,3.3-2.3c1.2-0.5,2.6-0.8,4.1-0.8 c2,0,3.8,0.4,5.2,1.1c1.4,0.7,2.6,1.8,3.3,3.2L410.1,104.1z"></path> <path class="st2" d="M417.6,119.1v-20h9.9v1.7h-8.1v6.3h8.1v1.7h-8.1v8.6h8.1v1.7H417.6z"></path> <path class="st2" d="M438.1,119.9l-7.8-20.8h2.1l5.8,16.3l6.1-16.3h2L438.1,119.9z"></path> <path class="st2" d="M449.5,119.1v-20h9.9v1.7h-8.1v6.3h8.1v1.7h-8.1v8.6h8.1v1.7H449.5z"></path> <path class="st2" d="M477.1,119.1h-2.2l-7-9.5h-1.1v9.5h-1.8v-20h3.7c2.2,0,3.8,0.5,4.9,1.4c1.1,0.9,1.6,2.3,1.6,4.1 c0,1.6-0.5,2.8-1.4,3.7c-0.9,0.9-2.2,1.3-3.8,1.3L477.1,119.1z M466.7,100.7v7.4h1.8c1.7,0,2.9-0.3,3.5-0.8c0.7-0.5,1-1.5,1-2.8 c0-1.4-0.3-2.4-1-2.9c-0.7-0.6-1.9-0.9-3.5-0.9H466.7z"></path> <path class="st2" d="M480.7,119.1v-20h1.8v20H480.7z"></path> <path class="st2" d="M492.5,113.6V99.1h1.8v15.7c0,1.6-0.4,2.8-1.1,3.6c-0.7,0.8-1.8,1.2-3.2,1.2c-0.8,0-1.6-0.2-2.2-0.5 c-0.7-0.4-1.2-0.9-1.6-1.6l1.3-1.2c0.4,0.5,0.8,0.9,1.2,1.1c0.4,0.2,0.9,0.4,1.3,0.4c0.9,0,1.5-0.3,1.9-1 C492.3,116.3,492.5,115.2,492.5,113.6z"></path> </g> </g> <g id="Layer_9"> <path class="st2" d="M187.8,70.3h-4.1v17.8h-6V46.9h6v17.5h3.4l11.2-17.5h7.1l-13,19.7l14,21.5h-7.3L187.8,70.3z"></path> <path class="st2" d="M216,82.6h16.4v5.5h-22.4V46.9h6V82.6z"></path> <path class="st2" d="M258.9,69.6h-15.6v13h18.1v5.5h-24.1V46.9h23.9v5.5h-18v11.6h15.6V69.6z"></path> <path class="st2" d="M293.6,46.9v27.6c0,4.6-1.3,8.1-3.9,10.5c-2.6,2.4-6,3.7-10.1,3.7c-4.1,0-7.4-1.2-9.9-3.7 c-2.5-2.5-3.8-6-3.8-10.5V46.9h6v27.6c0,2.9,0.7,5.1,2.1,6.5c1.4,1.5,3.3,2.2,5.7,2.2c2.5,0,4.4-0.7,5.9-2.2 c1.5-1.5,2.2-3.6,2.2-6.5V46.9H293.6z"></path> <path class="st2" d="M306.7,71v17.1h-6V46.9h13.2c4,0,7.1,1,9.3,3.1c2.2,2.1,3.3,5,3.3,8.9c0,2.1-0.5,4-1.4,5.5 c-1,1.5-2.4,2.8-4.2,3.7c2,0.7,3.5,1.9,4.3,3.6c0.9,1.7,1.3,3.7,1.3,6.2v3.4c0,1.2,0.1,2.4,0.4,3.5c0.3,1.2,0.7,2,1.3,2.6v0.7H322 c-0.7-0.6-1.1-1.6-1.3-2.9c-0.2-1.3-0.3-2.6-0.3-3.9v-3.3c0-2.1-0.5-3.8-1.6-5c-1-1.2-2.5-1.9-4.3-1.9H306.7z M306.7,65.5h6.9 c2.4,0,4.1-0.5,5.2-1.6c1.1-1.1,1.6-2.7,1.6-4.8c0-2.1-0.5-3.7-1.6-4.9c-1.1-1.2-2.7-1.8-4.9-1.8h-7.2V65.5z"></path> <path class="st2" d="M336.6,69.5v18.6h-2.9V46.9h12.1c3.8,0,6.8,1,8.8,2.9c2,1.9,3.1,4.8,3.1,8.5c0,2.2-0.5,4.1-1.6,5.9 c-1.1,1.7-2.6,3-4.6,3.8c2.2,0.6,3.8,1.8,4.8,3.4c1,1.6,1.5,3.7,1.5,6.2v3.9c0,1.3,0.1,2.4,0.4,3.5c0.3,1,0.7,1.8,1.3,2.5v0.7h-3 c-0.6-0.7-1-1.6-1.3-2.9c-0.2-1.2-0.4-2.5-0.4-3.8v-3.8c0-2.5-0.7-4.5-2.1-6c-1.4-1.5-3.4-2.2-5.9-2.2H336.6z M336.6,66.6h8.8 c3.2,0,5.6-0.7,7.1-2.2c1.5-1.5,2.2-3.5,2.2-6.1c0-2.7-0.7-4.8-2.2-6.3c-1.5-1.5-3.7-2.2-6.7-2.2h-9.2V66.6z"></path> <path class="st2" d="M370.4,88.1h-2.9V46.9h2.9V88.1z"></path> <path class="st2" d="M396,46.9h2.9v29.5c0,3.8-1,6.7-2.9,9c-1.9,2.2-4.4,3.3-7.5,3.3c-3.4,0-6-1-8-3c-1.9-2-2.9-4.9-2.8-8.8l0-0.2 h2.7c0,3,0.7,5.2,2.1,6.8c1.4,1.5,3.3,2.3,5.9,2.3c2.2,0,4-0.9,5.4-2.6c1.4-1.7,2.1-4,2.1-6.9V46.9z"></path> <path class="st2" d="M416,68.7H411v19.4h-2.9V46.9h2.9v19h4.9l14.1-19h3.3l0,0.1l-14.8,20.1L434.4,88l0,0.1h-3.5L416,68.7z"></path> <path class="st2" d="M460.4,68.2h-17.2v17.1h19.7v2.9h-22.6V46.9h22.5v2.9h-19.6v15.5h17.2V68.2z"></path> <path class="st2" d="M472.1,69.5v18.6h-2.9V46.9h12.1c3.8,0,6.8,1,8.8,2.9c2,1.9,3.1,4.8,3.1,8.5c0,2.2-0.5,4.1-1.6,5.9 c-1.1,1.7-2.6,3-4.6,3.8c2.2,0.6,3.8,1.8,4.8,3.4c1,1.6,1.5,3.7,1.5,6.2v3.9c0,1.3,0.1,2.4,0.4,3.5c0.3,1,0.7,1.8,1.3,2.5v0.7h-3 c-0.6-0.7-1-1.6-1.3-2.9c-0.2-1.2-0.4-2.5-0.4-3.8v-3.8c0-2.5-0.7-4.5-2.1-6c-1.4-1.5-3.4-2.2-5.9-2.2H472.1z M472.1,66.6h8.8 c3.2,0,5.6-0.7,7.1-2.2c1.5-1.5,2.2-3.5,2.2-6.1c0-2.7-0.7-4.8-2.2-6.3c-1.5-1.5-3.7-2.2-6.7-2.2h-9.2V66.6z"></path> </g> <g id="Layer_6" class="st0"> </g> <g id="Layer_7" class="st0"> </g> <g id="Oranje"> </g> <g id="Donker_Grijs"> <ellipse transform="matrix(0.7071 -0.7071 0.7071 0.7071 -27.7571 90.886)" class="st2" cx="95.8" cy="78.9" rx="50.3" ry="50.3"></ellipse> </g> <g id="Layer_15"> <path class="st3" d="M131.9,34.2L95.8,78.9l36.5,42.9l0.1,0.1c12.3-10.5,20.1-26.2,20.1-43.6C152.5,60.6,144.5,44.7,131.9,34.2z"></path> </g> <g id="groen"> <path class="st4" d="M68.7,137.2L95.8,79L36.6,54.1c-3.2,7.6-5,16-5,24.8C31.6,104.7,46.8,127,68.7,137.2z"></path> </g> <g id="Blauwe"> <path class="st5" d="M95.9,78.9L152.6,49c-10.8-20.4-32.2-34.2-56.8-34.2c-9.2,0-18,2-25.9,5.5L95.9,78.9z"></path> </g> <g id="Rood_1_"> <path class="st6" d="M78.3,8.7L78.3,8.7c-27.8,6.9-49.2,29.8-53.9,58.4c0,0.1,0,0.1,0,0.2l71.4,11.6L78.3,8.7z"></path> </g> <g id="lichaam"> </g> <g id="Layer_16"> <path class="st7" d="M73.7,126.6l0.2,0.1c3.9,1.5,9.1,2.6,16.1,3.1c36.1,2.3,32.5-31.2,17.8-46.8C97.2,71.9,92.2,55.6,93.1,49.4 c0.4-1,2.1-1.8,3.1-1.8c1,0,2.5,0.3,3.6,1c-0.2-2-3.8-3.9-4.7-5.3c-0.9-1.4-0.7-4.3-7.5-2.6c-6.8,1.8-1.5,15,1.6,25.9 c3.1,10.9,0.7,23.8-1.9,27.8C77.1,104.3,73.7,126.6,73.7,126.6z"></path> <path class="st7" d="M89.1,34.6c0,0.9-0.7,1.7-1.7,1.7c-0.9,0-1.7-0.7-1.7-1.7c0-0.9,0.7-1.7,1.7-1.7 C88.4,32.9,89.1,33.7,89.1,34.6z"></path> <path class="st7" d="M84.3,36.8c0,0.8-0.7,1.5-1.5,1.5c-0.8,0-1.5-0.7-1.5-1.5c0-0.8,0.7-1.5,1.5-1.5 C83.7,35.3,84.3,35.9,84.3,36.8z"></path> <path class="st7" d="M80.7,40.6c0,0.5-0.4,0.9-0.9,0.9c-0.5,0-0.9-0.4-0.9-0.9c0-0.5,0.4-0.9,0.9-0.9 C80.3,39.7,80.7,40.1,80.7,40.6z"></path> </g> <g id="Lijnen_Werk" class="st0"> </g> </svg> 